<svg width="512" height="512" viewBox="0 0 512 512" fill="none" xmlns="http://www.w3.org/2000/svg">
<g clip-path="url(#clip0_117_456)">
<circle cx="256" cy="256" r="256" fill="black"/>
<g clip-path="url(#clip1_117_456)">
<path fill-rule="evenodd" clip-rule="evenodd" d="M256.471 15.8184C123.257 15.8184 15.566 123.173 15.566 255.985C15.566 362.149 84.5671 452.014 180.29 483.821C192.258 486.212 196.642 478.653 196.642 472.295C196.642 466.727 196.247 447.642 196.247 427.757C129.233 442.074 115.278 399.128 115.278 399.128C104.509 371.294 88.5514 364.14 88.5514 364.14C66.6178 349.427 90.1491 349.427 90.1491 349.427C114.479 351.018 127.246 374.08 127.246 374.08C148.78 410.659 183.48 400.323 197.44 393.96C199.433 378.452 205.818 367.717 212.599 361.754C159.15 356.186 102.916 335.51 102.916 243.259C102.916 217.015 112.482 195.545 127.64 178.846C125.249 172.883 116.871 148.226 130.037 115.224C130.037 115.224 150.378 108.861 196.242 139.876C215.878 134.619 236.129 131.945 256.471 131.922C276.812 131.922 297.547 134.709 316.694 139.876C362.564 108.861 382.905 115.224 382.905 115.224C396.071 148.226 387.688 172.883 385.296 178.846C400.854 195.545 410.026 217.015 410.026 243.259C410.026 335.51 353.791 355.786 299.943 361.754C308.721 369.308 316.295 383.62 316.295 406.286C316.295 438.493 315.901 464.341 315.901 472.29C315.901 478.653 320.289 486.212 332.252 483.826C427.975 452.01 496.976 362.149 496.976 255.985C497.371 123.173 389.285 15.8184 256.471 15.8184Z" fill="white"/>
</g>
<mask id="mask0_117_456" style="mask-type:alpha" maskUnits="userSpaceOnUse" x="147" y="329" width="365" height="183">
<rect x="147" y="329" width="365" height="182.5" rx="91.25" fill="#D9D9D9"/>
</mask>
<g mask="url(#mask0_117_456)">
<rect x="147" y="329" width="182.5" height="182.5" fill="#64B65D"/>
<rect x="329.5" y="329" width="182.5" height="182.5" fill="#C8443B"/>
</g>
<rect x="226.57" y="373.53" width="23.36" height="93.44" fill="#195114"/>
<rect x="284.97" y="408.57" width="23.36" height="93.44" transform="rotate(90 284.97 408.57)" fill="#195114"/>
<rect x="467.47" y="408.57" width="23.36" height="93.44" transform="rotate(90 467.47 408.57)" fill="#6D1A14"/>
</g>
<defs>
<clipPath id="clip0_117_456">
<rect width="512" height="512" fill="white"/>
</clipPath>
<clipPath id="clip1_117_456">
<rect width="483.249" height="468.456" fill="white" transform="translate(15.566 15.8184)"/>
</clipPath>
</defs>
</svg>
