<svg width="201" height="60" viewBox="0 0 201 60" fill="none" xmlns="http://www.w3.org/2000/svg">
<rect x="0.25" y="-0.25" width="200.493" height="59.0268" transform="matrix(1 0 0 -1 0 59.5)" fill="white"/>
<g filter="url(#filter0_d_117_281)">
<mask id="mask0_117_281" style="mask-type:alpha" maskUnits="userSpaceOnUse" x="10" y="10" width="46" height="40">
<path fill-rule="evenodd" clip-rule="evenodd" d="M55.4403 10.4732H10V46.8877C10 48.6066 11.3934 50 13.1123 50H52.3279C54.0468 50 55.4403 48.6066 55.4403 46.8877V10.4732ZM27.7404 14.5192C26.5372 14.5192 25.5617 15.4946 25.5617 16.6979C25.5617 17.9011 26.5372 18.8765 27.7404 18.8765H37.6999C38.9031 18.8765 39.8785 17.9011 39.8785 16.6979C39.8785 15.4946 38.9031 14.5192 37.6999 14.5192H27.7404Z" fill="#EEEEEE"/>
</mask>
<g mask="url(#mask0_117_281)">
<rect x="10" y="10.4732" width="45.4403" height="39.5268" fill="#EEEEEE"/>
<mask id="mask1_117_281" style="mask-type:alpha" maskUnits="userSpaceOnUse" x="13" y="27" width="40" height="40">
<circle cx="32.7202" cy="46.8877" r="19.6078" fill="#D9D9D9"/>
</mask>
<g mask="url(#mask1_117_281)">
<path d="M16.1074 27.2379V51.4748H24.9453L32.7203 38.0091H52.4696V27.2379H16.1074ZM12.9568 27.2379V51.4748H24.9453L32.7203 38.0091H52.4696V27.2379H12.9568Z" fill="#DB4437"/>
<path d="M12.971 66.7366H31.7692L40.4954 58.0104V51.4774L24.9452 51.4749L12.971 30.9379V66.7366ZM12.971 66.7366H31.7692L40.4954 58.0104V51.4774L24.9452 51.4749L12.971 30.9379V66.7366Z" fill="#0F9D58"/>
<path d="M32.7202 38.0089L40.4953 51.4746L31.7716 66.7367H52.4695V38.0089H32.7202ZM32.7202 38.0089L40.4953 51.4746L31.7716 66.7367H52.4695V38.0089H32.7202Z" fill="#FFCD40"/>
<path d="M32.7202 38.009C37.6788 38.009 41.6983 42.0289 41.6983 46.9875C41.6983 51.9456 37.6788 55.9655 32.7202 55.9655C27.7616 55.9655 23.7421 51.9456 23.7421 46.9875C23.7421 42.0289 27.7616 38.009 32.7202 38.009Z" fill="#F1F1F1"/>
<path d="M32.7202 39.8046C36.687 39.8046 39.9027 43.0203 39.9027 46.9875C39.9027 50.9539 36.687 54.1695 32.7202 54.1695C28.7534 54.1695 25.5377 50.9539 25.5377 46.9875C25.5377 43.0203 28.7534 39.8046 32.7202 39.8046Z" fill="#4285F4"/>
</g>
<rect x="10" y="10.4732" width="45.4403" height="19.6078" fill="black" fill-opacity="0.08"/>
</g>
</g>
<path d="M72.1521 43.0997C70.5349 43.0997 69.1783 42.5524 68.0832 41.4568C66.9881 40.3617 66.4403 38.9952 66.4403 37.3572C66.4403 35.7197 66.9881 34.3532 68.0832 33.2576C69.1783 32.1629 70.5349 31.6147 72.1521 31.6147C73.8103 31.6147 75.1561 32.214 76.1902 33.4112L75.2076 34.3632C74.4602 33.4319 73.4418 32.9659 72.1521 32.9659C70.9544 32.9659 69.9435 33.3705 69.1198 34.1789C68.2957 34.9877 67.8836 36.0471 67.8836 37.3572C67.8836 38.6677 68.2957 39.7272 69.1198 40.5356C69.9435 41.3448 70.9544 41.7485 72.1521 41.7485C73.4725 41.7485 74.5988 41.2165 75.53 40.1517L76.5127 41.1348C76.011 41.7386 75.3814 42.2171 74.6241 42.5702C73.8663 42.9229 73.0426 43.0997 72.1521 43.0997Z" fill="#5F6368"/>
<path d="M79.1844 31.8606V35.3307L79.123 36.3747H79.1844C79.389 36.0166 79.7115 35.712 80.1518 35.4614C80.5916 35.2103 81.0626 35.0854 81.5643 35.0854C82.4956 35.0854 83.2072 35.3717 83.6986 35.9448C84.1899 36.5183 84.4356 37.286 84.4356 38.2484V42.8542H83.023V38.4629C83.023 37.0711 82.4034 36.3747 81.1651 36.3747C80.5817 36.3747 80.1057 36.6075 79.7372 37.0736C79.3687 37.5396 79.1844 38.0791 79.1844 38.6932V42.8542H77.7718V31.8606H79.1844Z" fill="#5F6368"/>
<path d="M87.5063 42.8543H86.0937V35.3307H87.4449V36.5591H87.5063C87.6495 36.1499 87.9437 35.8117 88.389 35.5457C88.8343 35.2797 89.2667 35.1465 89.6866 35.1465C90.1062 35.1465 90.4593 35.2079 90.7461 35.3307L90.2087 36.6512C90.0244 36.5798 89.7734 36.5437 89.4563 36.5437C88.9442 36.5437 88.4915 36.7458 88.0972 37.1504C87.7034 37.5546 87.5063 38.0845 87.5063 38.7394V42.8543Z" fill="#5F6368"/>
<path d="M92.9183 41.0655C93.4042 41.5619 93.9802 41.8104 94.6458 41.8104C95.3111 41.8104 95.8866 41.5619 96.373 41.0655C96.8593 40.5692 97.1025 39.9119 97.1025 39.0923C97.1025 38.2736 96.8593 37.6158 96.373 37.1195C95.8866 36.6232 95.3111 36.3746 94.6458 36.3746C93.9802 36.3746 93.4042 36.6232 92.9183 37.1195C92.4323 37.6158 92.1892 38.2736 92.1892 39.0923C92.1892 39.9119 92.4323 40.5692 92.9183 41.0655ZM91.8667 36.229C92.5934 35.4666 93.5196 35.0853 94.6458 35.0853C95.7717 35.0853 96.6979 35.4666 97.425 36.229C98.1516 36.9917 98.5151 37.9461 98.5151 39.0923C98.5151 40.2393 98.1516 41.1938 97.425 41.9561C96.6979 42.7188 95.7717 43.0998 94.6458 43.0998C93.5196 43.0998 92.5934 42.7188 91.8667 41.9561C91.1397 41.1938 90.7766 40.2393 90.7766 39.0923C90.7766 37.9461 91.1397 36.9917 91.8667 36.229" fill="#5F6368"/>
<path d="M99.6512 42.8543V35.3307H101.002V36.3748H101.064C101.279 36.0163 101.609 35.7121 102.054 35.4614C102.5 35.2104 102.942 35.0851 103.382 35.0851C104.549 35.0851 105.342 35.5664 105.762 36.5284C106.377 35.5664 107.252 35.0851 108.388 35.0851C109.279 35.0851 109.949 35.3693 110.399 35.937C110.85 36.5051 111.075 37.2757 111.075 38.248V42.8543H109.663V38.463C109.663 37.7057 109.524 37.1683 109.248 36.8508C108.971 36.5338 108.551 36.3748 107.989 36.3748C107.436 36.3748 106.978 36.6105 106.615 37.0811C106.251 37.5521 106.069 38.0895 106.069 38.6933V42.8543H104.657V38.463C104.657 37.7057 104.518 37.1683 104.242 36.8508C103.966 36.5338 103.546 36.3748 102.983 36.3748C102.43 36.3748 101.972 36.6105 101.609 37.0811C101.246 37.5521 101.064 38.0895 101.064 38.6933V42.8543H99.6512Z" fill="#5F6368"/>
<path d="M118.168 38.1866C118.138 37.7567 117.94 37.3475 117.577 36.9583C117.214 36.5694 116.673 36.3748 115.957 36.3748C115.435 36.3748 114.982 36.5387 114.598 36.8662C114.215 37.1936 113.951 37.6339 113.808 38.1866H118.168ZM116.141 43.1C115.005 43.1 114.081 42.7215 113.37 41.9638C112.659 41.2064 112.303 40.2495 112.303 39.0925C112.303 37.9974 112.648 37.0554 113.339 36.2673C114.03 35.4793 114.913 35.0851 115.988 35.0851C117.104 35.0851 117.997 35.4486 118.667 36.1752C119.337 36.9018 119.673 37.8746 119.673 39.0925L119.658 39.354H113.716C113.756 40.1113 114.01 40.7101 114.476 41.15C114.941 41.5903 115.486 41.8102 116.111 41.8102C117.124 41.8102 117.81 41.3803 118.168 40.5205L119.427 41.0425C119.182 41.626 118.777 42.1148 118.214 42.5091C117.651 42.9029 116.96 43.1 116.141 43.1Z" fill="#5F6368"/>
<path d="M136.778 31.8606L133.845 42.8542H132.401L130.037 35.607H129.976L127.611 42.8542H126.168L123.112 31.8606H124.586L126.905 40.505H126.966L129.346 33.3346H130.666L133.047 40.505H133.108L135.303 31.8606H136.778Z" fill="#5F6368"/>
<path d="M142.474 38.1866C142.443 37.7567 142.246 37.3475 141.883 36.9583C141.52 36.5694 140.979 36.3748 140.263 36.3748C139.741 36.3748 139.288 36.5387 138.904 36.8662C138.521 37.1936 138.257 37.6339 138.114 38.1866H142.474ZM140.447 43.1C139.311 43.1 138.387 42.7215 137.676 41.9638C136.964 41.2064 136.609 40.2495 136.609 39.0925C136.609 37.9974 136.954 37.0554 137.645 36.2673C138.336 35.4793 139.219 35.0851 140.294 35.0851C141.41 35.0851 142.303 35.4486 142.973 36.1752C143.643 36.9018 143.979 37.8746 143.979 39.0925L143.963 39.354H138.022C138.062 40.1113 138.316 40.7101 138.782 41.15C139.247 41.5903 139.792 41.8102 140.417 41.8102C141.43 41.8102 142.116 41.3803 142.474 40.5205L143.733 41.0425C143.487 41.626 143.083 42.1148 142.52 42.5091C141.957 42.9029 141.266 43.1 140.447 43.1Z" fill="#5F6368"/>
<path d="M149.015 41.8104C149.67 41.8104 150.233 41.5618 150.704 41.0655C151.175 40.5692 151.41 39.9119 151.41 39.0923C151.41 38.2739 151.175 37.6162 150.704 37.1195C150.233 36.6231 149.67 36.3746 149.015 36.3746C148.349 36.3746 147.784 36.6202 147.318 37.112C146.852 37.6029 146.62 38.2631 146.62 39.0923C146.62 39.9214 146.852 40.5821 147.318 41.0734C147.784 41.5643 148.349 41.8104 149.015 41.8104ZM149.246 43.0997C148.672 43.0997 148.158 42.9773 147.702 42.7316C147.247 42.486 146.906 42.1789 146.681 41.8104H146.62V42.8545H145.269V31.8604H146.681V35.3309L146.62 36.3746H146.681C146.906 36.0065 147.247 35.699 147.702 35.4537C148.158 35.2081 148.672 35.0852 149.246 35.0852C150.218 35.0852 151.057 35.4691 151.763 36.2364C152.47 37.0045 152.823 37.9565 152.823 39.0923C152.823 40.2285 152.47 41.1805 151.763 41.9486C151.057 42.7163 150.218 43.0997 149.246 43.0997Z" fill="#5F6368"/>
<path d="M160.377 43.0999C159.579 43.0999 158.798 42.8389 158.035 42.3168C157.273 41.7948 156.774 41.0632 156.538 40.1212L157.828 39.5991C157.982 40.2033 158.296 40.7125 158.773 41.1271C159.249 41.5416 159.783 41.7487 160.377 41.7487C160.991 41.7487 161.516 41.5873 161.951 41.2653C162.386 40.9428 162.603 40.505 162.603 39.9523C162.603 39.3385 162.386 38.865 161.951 38.5322C161.516 38.1994 160.827 37.8898 159.886 37.6031C158.913 37.2964 158.176 36.8997 157.675 36.4133C157.173 35.9274 156.923 35.3053 156.923 34.548C156.923 33.7595 157.235 33.0736 157.859 32.4905C158.483 31.9066 159.297 31.6149 160.3 31.6149C161.232 31.6149 161.99 31.8481 162.573 32.3137C163.156 32.7798 163.535 33.2885 163.709 33.8413L162.419 34.3787C162.327 34.0309 162.099 33.7085 161.736 33.4114C161.373 33.1147 160.904 32.9661 160.331 32.9661C159.789 32.9661 159.325 33.1171 158.942 33.4192C158.558 33.7209 158.366 34.0973 158.366 34.548C158.366 34.9572 158.542 35.3028 158.896 35.5842C159.249 35.8656 159.768 36.1191 160.454 36.344C160.996 36.5183 161.449 36.6872 161.813 36.8507C162.176 37.0146 162.544 37.2321 162.918 37.5035C163.292 37.7749 163.573 38.1123 163.763 38.5169C163.952 38.9215 164.047 39.3896 164.047 39.9216C164.047 40.454 163.937 40.93 163.717 41.3495C163.496 41.7695 163.205 42.1019 162.841 42.348C162.478 42.5932 162.086 42.7799 161.667 42.9082C161.247 43.036 160.817 43.0999 160.377 43.0999Z" fill="#5F6368"/>
<path d="M168.392 42.9771C167.604 42.9771 167.002 42.7675 166.588 42.3476C166.173 41.928 165.966 41.3342 165.966 40.5665V36.6204H164.646V35.3307H165.966V33.0275H167.379V35.3307H169.221V36.6204H167.379V40.459C167.379 41.2782 167.717 41.6878 168.392 41.6878C168.648 41.6878 168.863 41.6467 169.037 41.5645L169.528 42.7779C169.221 42.9107 168.842 42.9771 168.392 42.9771Z" fill="#5F6368"/>
<path d="M172.208 41.0655C172.694 41.5619 173.27 41.8104 173.935 41.8104C174.6 41.8104 175.176 41.5619 175.662 41.0655C176.148 40.5692 176.392 39.9119 176.392 39.0923C176.392 38.2736 176.148 37.6158 175.662 37.1195C175.176 36.6232 174.6 36.3746 173.935 36.3746C173.27 36.3746 172.694 36.6232 172.208 37.1195C171.721 37.6158 171.478 38.2736 171.478 39.0923C171.478 39.9119 171.721 40.5692 172.208 41.0655ZM171.156 36.229C171.883 35.4666 172.809 35.0853 173.935 35.0853C175.061 35.0853 175.987 35.4666 176.714 36.229C177.441 36.9917 177.804 37.9461 177.804 39.0923C177.804 40.2393 177.441 41.1938 176.714 41.9561C175.987 42.7188 175.061 43.0998 173.935 43.0998C172.809 43.0998 171.883 42.7188 171.156 41.9561C170.429 41.1938 170.066 40.2393 170.066 39.0923C170.066 37.9461 170.429 36.9917 171.156 36.229" fill="#5F6368"/>
<path d="M180.353 42.8543H178.941V35.3307H180.292V36.5591H180.353C180.496 36.1499 180.791 35.8117 181.236 35.5457C181.681 35.2797 182.113 35.1465 182.533 35.1465C182.953 35.1465 183.306 35.2079 183.593 35.3307L183.055 36.6512C182.871 36.5798 182.62 36.5437 182.303 36.5437C181.791 36.5437 181.338 36.7458 180.944 37.1504C180.55 37.5546 180.353 38.0845 180.353 38.7394V42.8543Z" fill="#5F6368"/>
<path d="M189.488 38.1866C189.458 37.7567 189.261 37.3475 188.897 36.9583C188.534 36.5694 187.994 36.3748 187.277 36.3748C186.755 36.3748 186.302 36.5387 185.918 36.8662C185.535 37.1936 185.271 37.6339 185.128 38.1866H189.488ZM187.462 43.1C186.325 43.1 185.401 42.7215 184.69 41.9638C183.979 41.2064 183.623 40.2495 183.623 39.0925C183.623 37.9974 183.968 37.0554 184.659 36.2673C185.35 35.4793 186.233 35.0851 187.308 35.0851C188.424 35.0851 189.317 35.4486 189.987 36.1752C190.657 36.9018 190.993 37.8746 190.993 39.0925L190.978 39.354H185.036C185.076 40.1113 185.33 40.7101 185.796 41.15C186.262 41.5903 186.806 41.8102 187.431 41.8102C188.444 41.8102 189.13 41.3803 189.488 40.5205L190.747 41.0425C190.502 41.626 190.098 42.1148 189.534 42.5091C188.971 42.9029 188.28 43.1 187.462 43.1Z" fill="#5F6368"/>
<path d="M69.6154 22.5322H72.3808L71.0213 18.7792H70.9748L69.6154 22.5322ZM67.2566 25.7857L70.3939 17.4662H71.6023L74.7395 25.7857H73.5544L72.7526 23.5315H69.2552L68.4418 25.7857H67.2566Z" fill="#5F6368"/>
<path d="M76.6453 25.7857L74.3447 20.0921H75.5066L77.1798 24.5075H77.203L78.8995 20.0921H80.0382L77.7143 25.7857H76.6453Z" fill="#5F6368"/>
<path d="M82.5942 24.9954C83.0358 24.9954 83.4367 24.8311 83.7969 24.502C84.1571 24.1729 84.3372 23.7833 84.3372 23.3338C84.0351 23.0861 83.5819 22.9624 82.9777 22.9624C82.4585 22.9624 82.0672 23.0745 81.8041 23.299C81.5406 23.5239 81.4091 23.787 81.4091 24.0891C81.4091 24.368 81.529 24.5891 81.7693 24.7514C82.0091 24.9145 82.2843 24.9954 82.5942 24.9954ZM82.42 25.9719C81.8157 25.9719 81.3103 25.7976 80.9036 25.449C80.4969 25.1 80.2936 24.6394 80.2936 24.0663C80.2936 23.4467 80.5335 22.9603 81.014 22.6076C81.4941 22.2553 82.0867 22.0793 82.7918 22.0793C83.4192 22.0793 83.9342 22.1951 84.3372 22.4279V22.2648C84.3372 21.8465 84.1936 21.5117 83.9072 21.2598C83.6205 21.0083 83.2682 20.8821 82.8499 20.8821C82.5399 20.8821 82.2589 20.956 82.0075 21.1029C81.7556 21.2506 81.5834 21.4515 81.4904 21.7071L80.5144 21.2888C80.6459 20.9481 80.9053 20.6323 81.2929 20.3418C81.68 20.0513 82.1913 19.9061 82.8266 19.9061C83.5545 19.9061 84.1587 20.1194 84.6393 20.5452C85.1194 20.9713 85.3597 21.5718 85.3597 22.3462V25.7855H84.3372V24.9954H84.2907C83.8645 25.6461 83.2408 25.9719 82.42 25.9719Z" fill="#5F6368"/>
<path d="M87.7301 25.7857H86.6611V20.0921H87.7301V25.7857ZM87.7301 18.6629C87.5828 18.8098 87.4047 18.8837 87.1956 18.8837C86.9864 18.8837 86.808 18.8098 86.6611 18.6629C86.5138 18.5156 86.4399 18.3376 86.4399 18.1284C86.4399 17.9193 86.5138 17.7413 86.6611 17.5939C86.808 17.4466 86.9864 17.3732 87.1956 17.3732C87.4047 17.3732 87.5828 17.4466 87.7301 17.5939C87.877 17.7413 87.9508 17.9193 87.9508 18.1284C87.9508 18.3376 87.877 18.5156 87.7301 18.6629Z" fill="#5F6368"/>
<path d="M90.193 25.7857H89.124V17.4661H90.193V25.7857Z" fill="#5F6368"/>
<path d="M93.4119 24.9954C93.8534 24.9954 94.2543 24.8311 94.6145 24.502C94.9747 24.1729 95.1548 23.7833 95.1548 23.3338C94.8527 23.0861 94.3995 22.9624 93.7953 22.9624C93.2762 22.9624 92.8849 23.0745 92.6218 23.299C92.3583 23.5239 92.2267 23.787 92.2267 24.0891C92.2267 24.368 92.3466 24.5891 92.5869 24.7514C92.8268 24.9145 93.1019 24.9954 93.4119 24.9954ZM93.2376 25.9719C92.6334 25.9719 92.1279 25.7976 91.7213 25.449C91.3146 25.1 91.1112 24.6394 91.1112 24.0663C91.1112 23.4467 91.3511 22.9603 91.8316 22.6076C92.3118 22.2553 92.9044 22.0793 93.6094 22.0793C94.2369 22.0793 94.7519 22.1951 95.1548 22.4279V22.2648C95.1548 21.8465 95.0112 21.5117 94.7249 21.2598C94.4381 21.0083 94.0858 20.8821 93.6675 20.8821C93.3575 20.8821 93.0766 20.956 92.8251 21.1029C92.5732 21.2506 92.401 21.4515 92.308 21.7071L91.332 21.2888C91.4636 20.9481 91.7229 20.6323 92.1105 20.3418C92.4977 20.0513 93.0089 19.9061 93.6443 19.9061C94.3722 19.9061 94.9764 20.1194 95.4569 20.5452C95.937 20.9713 96.1773 21.5718 96.1773 22.3462V25.7855H95.1548V24.9954H95.1083C94.6821 25.6461 94.0584 25.9719 93.2376 25.9719Z" fill="#5F6368"/>
<path d="M100.221 24.9954C100.716 24.9954 101.142 24.8078 101.499 24.4323C101.855 24.0563 102.033 23.5587 102.033 22.9388C102.033 22.3192 101.855 21.8216 101.499 21.4457C101.142 21.0701 100.716 20.8821 100.221 20.8821C99.7174 20.8821 99.2891 21.068 98.9368 21.4403C98.5845 21.8117 98.4081 22.3113 98.4081 22.9388C98.4081 23.5666 98.5845 24.0663 98.9368 24.4377C99.2891 24.8099 99.7174 24.9954 100.221 24.9954ZM100.395 25.9719C99.9614 25.9719 99.5721 25.8785 99.2273 25.693C98.8824 25.5067 98.6247 25.2743 98.4546 24.9954H98.4081V25.7855H97.3856V17.466H98.4546V20.0924L98.4081 20.8821H98.4546C98.6247 20.6033 98.8824 20.3709 99.2273 20.185C99.5721 19.9991 99.9614 19.9061 100.395 19.9061C101.131 19.9061 101.766 20.197 102.301 20.7776C102.836 21.3585 103.102 22.0793 103.102 22.9388C103.102 23.7986 102.836 24.5194 102.301 25.1C101.766 25.681 101.131 25.9719 100.395 25.9719Z" fill="#5F6368"/>
<path d="M105.089 25.7857H104.021V17.4661H105.089V25.7857Z" fill="#5F6368"/>
<path d="M110.446 22.2535C110.422 21.9281 110.273 21.6186 109.999 21.3239C109.724 21.0297 109.314 20.882 108.773 20.882C108.378 20.882 108.035 21.006 107.744 21.2542C107.454 21.5019 107.254 21.8352 107.146 22.2535H110.446ZM108.912 25.9717C108.052 25.9717 107.353 25.6854 106.815 25.1119C106.276 24.5388 106.007 23.8146 106.007 22.9386C106.007 22.1099 106.269 21.3974 106.791 20.801C107.314 20.2047 107.982 19.9064 108.796 19.9064C109.64 19.9064 110.316 20.1815 110.823 20.7313C111.331 21.2812 111.584 22.0174 111.584 22.9386L111.573 23.1366H107.076C107.107 23.7101 107.299 24.1632 107.652 24.4956C108.004 24.8288 108.416 24.9952 108.889 24.9952C109.656 24.9952 110.175 24.6699 110.446 24.0196L111.399 24.4147C111.213 24.8558 110.907 25.226 110.481 25.5243C110.055 25.8223 109.532 25.9717 108.912 25.9717Z" fill="#5F6368"/>
<path d="M116.279 25.7857H115.21V20.0921H116.279V25.7857ZM116.279 18.6629C116.131 18.8098 115.953 18.8837 115.744 18.8837C115.535 18.8837 115.357 18.8098 115.21 18.6629C115.062 18.5156 114.988 18.3376 114.988 18.1284C114.988 17.9193 115.062 17.7413 115.21 17.5939C115.357 17.4466 115.535 17.3732 115.744 17.3732C115.953 17.3732 116.131 17.4466 116.279 17.5939C116.426 17.7413 116.499 17.9193 116.499 18.1284C116.499 18.3376 116.426 18.5156 116.279 18.6629Z" fill="#5F6368"/>
<path d="M118.695 20.0923V20.882H118.741C118.896 20.6114 119.14 20.3807 119.474 20.1906C119.806 20.001 120.163 19.9064 120.543 19.9064C121.247 19.9064 121.786 20.123 122.158 20.557C122.529 20.9907 122.715 21.5717 122.715 22.2995V25.7858H121.646V22.4626C121.646 21.4094 121.177 20.882 120.24 20.882C119.799 20.882 119.439 21.0583 119.16 21.4111C118.881 21.7634 118.741 22.1721 118.741 22.6369V25.7858H117.673V20.0923H118.695Z" fill="#5F6368"/>
<path d="M128.989 25.8784C128.393 25.8784 127.938 25.7199 127.624 25.4025C127.31 25.0846 127.153 24.6352 127.153 24.0542V21.068H126.154V20.0924H127.153V18.3491H128.222V20.0924H129.617V21.068H128.222V23.9729C128.222 24.5928 128.478 24.9024 128.989 24.9024C129.183 24.9024 129.345 24.8717 129.477 24.8099L129.849 25.7278C129.617 25.8282 129.33 25.8784 128.989 25.8784Z" fill="#5F6368"/>
<path d="M131.766 17.4662V20.0922L131.72 20.8819H131.766C131.921 20.6113 132.165 20.3806 132.499 20.1905C132.831 20.0009 133.188 19.9063 133.568 19.9063C134.272 19.9063 134.811 20.1229 135.182 20.5569C135.554 20.9906 135.74 21.572 135.74 22.2994V25.7857H134.671V22.4625C134.671 21.4093 134.202 20.8819 133.265 20.8819C132.824 20.8819 132.464 21.0582 132.185 21.411C131.906 21.7633 131.766 22.172 131.766 22.6368V25.7857H130.698V17.4662H131.766Z" fill="#5F6368"/>
<path d="M141.108 22.2535C141.085 21.9281 140.936 21.6186 140.661 21.3239C140.386 21.0297 139.977 20.882 139.435 20.882C139.04 20.882 138.697 21.006 138.406 21.2542C138.116 21.5019 137.917 21.8352 137.809 22.2535H141.108ZM139.575 25.9717C138.714 25.9717 138.016 25.6854 137.477 25.1119C136.939 24.5388 136.67 23.8146 136.67 22.9386C136.67 22.1099 136.931 21.3974 137.454 20.801C137.977 20.2047 138.645 19.9064 139.458 19.9064C140.303 19.9064 140.979 20.1815 141.486 20.7313C141.993 21.2812 142.247 22.0174 142.247 22.9386L142.236 23.1366H137.739C137.769 23.7101 137.961 24.1632 138.314 24.4956C138.666 24.8288 139.078 24.9952 139.551 24.9952C140.318 24.9952 140.837 24.6699 141.108 24.0196L142.061 24.4147C141.875 24.8558 141.569 25.226 141.143 25.5243C140.717 25.8223 140.194 25.9717 139.575 25.9717Z" fill="#5F6368"/>
<rect x="0.25" y="-0.25" width="200.493" height="59.0268" transform="matrix(1 0 0 -1 0 59.5)" stroke="#DADCE0" stroke-width="0.5"/>
<defs>
<filter id="filter0_d_117_281" x="10" y="10.4732" width="45.4403" height="39.8381" filterUnits="userSpaceOnUse" color-interpolation-filters="sRGB">
<feFlood flood-opacity="0" result="BackgroundImageFix"/>
<feColorMatrix in="SourceAlpha" type="matrix" values="0 0 0 0 0 0 0 0 0 0 0 0 0 0 0 0 0 0 127 0" result="hardAlpha"/>
<feOffset dy="0.311235"/>
<feComposite in2="hardAlpha" operator="out"/>
<feColorMatrix type="matrix" values="0 0 0 0 0 0 0 0 0 0 0 0 0 0 0 0 0 0 0.2 0"/>
<feBlend mode="normal" in2="BackgroundImageFix" result="effect1_dropShadow_117_281"/>
<feBlend mode="normal" in="SourceGraphic" in2="effect1_dropShadow_117_281" result="shape"/>
</filter>
</defs>
</svg>
