<svg width="205" height="62" viewBox="0 0 205 62" fill="none" xmlns="http://www.w3.org/2000/svg">
<g clip-path="url(#clip0_1007_3661)">
<path d="M0.20752 0.207478H204.793V61.2095H0.20752V0.207478Z" fill="white"/>
<path d="M205 -1.52588e-05H0V61.417H205V-1.52588e-05ZM204.585 61.002H0.41498V0.414963H204.585V61.002Z" fill="#DADCE0"/>
<path d="M71.4316 43.6395C69.8145 43.6395 68.4579 43.0922 67.3628 41.9966C66.2676 40.9015 65.7198 39.535 65.7198 37.897C65.7198 36.2595 66.2676 34.893 67.3628 33.7975C68.4579 32.7027 69.8145 32.1545 71.4316 32.1545C73.0899 32.1545 74.4357 32.7538 75.4698 33.951L74.4871 34.903C73.7397 33.9717 72.7214 33.5057 71.4316 33.5057C70.234 33.5057 69.2231 33.9103 68.3994 34.7187C67.5752 35.5275 67.1631 36.5869 67.1631 37.897C67.1631 39.2075 67.5752 40.267 68.3994 41.0754C69.2231 41.8846 70.234 42.2884 71.4316 42.2884C72.7521 42.2884 73.8784 41.7563 74.8096 40.6915L75.7922 41.6746C75.2905 42.2784 74.661 42.7569 73.9037 43.11C73.1459 43.4627 72.3222 43.6395 71.4316 43.6395Z" fill="#5F6368"/>
<path d="M78.464 32.4004V35.8705L78.4026 36.9145H78.464C78.6686 36.5564 78.991 36.2518 79.4313 36.0012C79.8712 35.7501 80.3422 35.6252 80.8439 35.6252C81.7751 35.6252 82.4868 35.9115 82.9781 36.4846C83.4695 37.0581 83.7151 37.8258 83.7151 38.7882V43.394H82.3025V39.0027C82.3025 37.6109 81.683 36.9145 80.4447 36.9145C79.8612 36.9145 79.3852 37.1474 79.0167 37.6134C78.6482 38.0794 78.464 38.6189 78.464 39.233V43.394H77.0514V32.4004H78.464Z" fill="#5F6368"/>
<path d="M86.7859 43.3941H85.3733V35.8706H86.7245V37.0989H86.7859C86.9291 36.6897 87.2233 36.3515 87.6685 36.0855C88.1138 35.8195 88.5462 35.6863 88.9662 35.6863C89.3857 35.6863 89.7389 35.7477 90.0256 35.8706L89.4882 37.191C89.304 37.1196 89.0529 37.0835 88.7359 37.0835C88.2238 37.0835 87.771 37.2856 87.3768 37.6902C86.983 38.0944 86.7859 38.6244 86.7859 39.2792V43.3941Z" fill="#5F6368"/>
<path d="M92.1979 41.6054C92.6838 42.1017 93.2598 42.3502 93.9254 42.3502C94.5906 42.3502 95.1662 42.1017 95.6526 41.6054C96.1389 41.109 96.3821 40.4517 96.3821 39.6321C96.3821 38.8134 96.1389 38.1556 95.6526 37.6593C95.1662 37.163 94.5906 36.9144 93.9254 36.9144C93.2598 36.9144 92.6838 37.163 92.1979 37.6593C91.7119 38.1556 91.4687 38.8134 91.4687 39.6321C91.4687 40.4517 91.7119 41.109 92.1979 41.6054ZM91.1463 36.7688C91.8729 36.0064 92.7992 35.6251 93.9254 35.6251C95.0513 35.6251 95.9775 36.0064 96.7045 36.7688C97.4312 37.5315 97.7947 38.486 97.7947 39.6321C97.7947 40.7791 97.4312 41.7336 96.7045 42.4959C95.9775 43.2586 95.0513 43.6396 93.9254 43.6396C92.7992 43.6396 91.8729 43.2586 91.1463 42.4959C90.4193 41.7336 90.0562 40.7791 90.0562 39.6321C90.0562 38.486 90.4193 37.5315 91.1463 36.7688Z" fill="#5F6368"/>
<path d="M98.9307 43.3941V35.8706H100.282V36.9146H100.343C100.558 36.5561 100.889 36.2519 101.334 36.0013C101.779 35.7502 102.222 35.6249 102.662 35.6249C103.829 35.6249 104.622 36.1063 105.042 37.0682C105.656 36.1063 106.531 35.6249 107.667 35.6249C108.558 35.6249 109.228 35.9091 109.679 36.4768C110.129 37.0449 110.354 37.8156 110.354 38.7879V43.3941H108.942V39.0028C108.942 38.2455 108.804 37.7081 108.527 37.3906C108.251 37.0736 107.831 36.9146 107.268 36.9146C106.715 36.9146 106.257 37.1503 105.894 37.6209C105.531 38.0919 105.349 38.6293 105.349 39.2331V43.3941H103.936V39.0028C103.936 38.2455 103.798 37.7081 103.522 37.3906C103.246 37.0736 102.826 36.9146 102.263 36.9146C101.71 36.9146 101.252 37.1503 100.889 37.6209C100.525 38.0919 100.343 38.6293 100.343 39.2331V43.3941H98.9307Z" fill="#5F6368"/>
<path d="M117.448 38.7264C117.417 38.2965 117.22 37.8874 116.856 37.4981C116.493 37.1093 115.953 36.9146 115.237 36.9146C114.715 36.9146 114.262 37.0786 113.878 37.406C113.494 37.7334 113.23 38.1737 113.087 38.7264H117.448ZM115.421 43.6398C114.285 43.6398 113.361 43.2613 112.649 42.5036C111.938 41.7462 111.582 40.7893 111.582 39.6323C111.582 38.5372 111.928 37.5952 112.619 36.8072C113.31 36.0191 114.193 35.6249 115.267 35.6249C116.383 35.6249 117.276 35.9884 117.947 36.715C118.617 37.4417 118.952 38.4144 118.952 39.6323L118.937 39.8938H112.995C113.036 40.6511 113.289 41.2499 113.755 41.6898C114.221 42.1301 114.766 42.35 115.39 42.35C116.404 42.35 117.09 41.9201 117.448 41.0603L118.707 41.5823C118.461 42.1658 118.057 42.6546 117.494 43.0489C116.931 43.4427 116.24 43.6398 115.421 43.6398Z" fill="#5F6368"/>
<path d="M136.057 32.4004L133.125 43.394H131.681L129.317 36.1468H129.255L126.891 43.394H125.448L122.392 32.4004H123.866L126.185 41.0448H126.246L128.626 33.8744H129.946L132.326 41.0448H132.387L134.583 32.4004H136.057Z" fill="#5F6368"/>
<path d="M141.754 38.7264C141.723 38.2965 141.526 37.8874 141.162 37.4981C140.799 37.1093 140.259 36.9146 139.543 36.9146C139.021 36.9146 138.567 37.0786 138.184 37.406C137.8 37.7334 137.536 38.1737 137.393 38.7264H141.754ZM139.727 43.6398C138.591 43.6398 137.667 43.2613 136.955 42.5036C136.244 41.7462 135.888 40.7893 135.888 39.6323C135.888 38.5372 136.234 37.5952 136.925 36.8072C137.616 36.0191 138.499 35.6249 139.573 35.6249C140.689 35.6249 141.582 35.9884 142.252 36.715C142.923 37.4417 143.258 38.4144 143.258 39.6323L143.243 39.8938H137.301C137.342 40.6511 137.595 41.2499 138.061 41.6898C138.527 42.1301 139.072 42.35 139.696 42.35C140.71 42.35 141.396 41.9201 141.754 41.0603L143.013 41.5823C142.767 42.1658 142.363 42.6546 141.8 43.0489C141.237 43.4427 140.546 43.6398 139.727 43.6398Z" fill="#5F6368"/>
<path d="M148.294 42.3502C148.95 42.3502 149.513 42.1016 149.983 41.6053C150.454 41.109 150.69 40.4517 150.69 39.6321C150.69 38.8138 150.454 38.156 149.983 37.6593C149.513 37.163 148.95 36.9144 148.294 36.9144C147.629 36.9144 147.064 37.1601 146.598 37.6518C146.132 38.1427 145.9 38.803 145.9 39.6321C145.9 40.4612 146.132 41.1219 146.598 41.6132C147.064 42.1041 147.629 42.3502 148.294 42.3502ZM148.525 43.6396C147.952 43.6396 147.438 43.5171 146.982 43.2715C146.526 43.0258 146.186 42.7187 145.961 42.3502H145.9V43.3943H144.548V32.4002H145.961V35.8707L145.9 36.9144H145.961C146.186 36.5463 146.526 36.2388 146.982 35.9936C147.438 35.7479 147.952 35.6251 148.525 35.6251C149.497 35.6251 150.337 36.0089 151.043 36.7762C151.749 37.5443 152.103 38.4963 152.103 39.6321C152.103 40.7683 151.749 41.7203 151.043 42.4884C150.337 43.2561 149.497 43.6396 148.525 43.6396Z" fill="#5F6368"/>
<path d="M159.657 43.6397C158.858 43.6397 158.078 43.3787 157.315 42.8566C156.553 42.3346 156.053 41.603 155.818 40.661L157.108 40.1389C157.262 40.7432 157.576 41.2523 158.052 41.6669C158.528 42.0815 159.063 42.2885 159.657 42.2885C160.271 42.2885 160.795 42.1271 161.231 41.8051C161.665 41.4826 161.883 41.0448 161.883 40.4921C161.883 39.8783 161.665 39.4048 161.231 39.072C160.795 38.7392 160.107 38.4296 159.165 38.1429C158.193 37.8362 157.456 37.4395 156.954 36.9531C156.452 36.4672 156.202 35.8451 156.202 35.0878C156.202 34.2993 156.514 33.6134 157.139 33.0303C157.763 32.4465 158.576 32.1547 159.58 32.1547C160.511 32.1547 161.269 32.3879 161.852 32.8536C162.436 33.3196 162.814 33.8283 162.988 34.3811L161.699 34.9185C161.607 34.5707 161.379 34.2483 161.015 33.9512C160.652 33.6545 160.184 33.5059 159.611 33.5059C159.068 33.5059 158.605 33.657 158.221 33.9591C157.837 34.2608 157.645 34.6371 157.645 35.0878C157.645 35.497 157.822 35.8427 158.175 36.124C158.528 36.4054 159.047 36.6589 159.734 36.8838C160.276 37.0581 160.729 37.227 161.092 37.3905C161.455 37.5544 161.824 37.7719 162.198 38.0433C162.571 38.3147 162.853 38.6521 163.042 39.0567C163.232 39.4613 163.327 39.9294 163.327 40.4614C163.327 40.9938 163.216 41.4698 162.996 41.8893C162.776 42.3093 162.484 42.6417 162.121 42.8878C161.757 43.133 161.366 43.3198 160.946 43.448C160.527 43.5758 160.097 43.6397 159.657 43.6397Z" fill="#5F6368"/>
<path d="M167.672 43.5169C166.884 43.5169 166.282 43.3074 165.867 42.8874C165.453 42.4679 165.246 41.874 165.246 41.1063V37.1603H163.925V35.8705H165.246V33.5674H166.658V35.8705H168.501V37.1603H166.658V40.9988C166.658 41.818 166.996 42.2276 167.672 42.2276C167.927 42.2276 168.142 42.1865 168.317 42.1043L168.808 43.3177C168.501 43.4505 168.122 43.5169 167.672 43.5169Z" fill="#5F6368"/>
<path d="M171.487 41.6054C171.973 42.1017 172.549 42.3502 173.215 42.3502C173.88 42.3502 174.455 42.1017 174.942 41.6054C175.428 41.109 175.671 40.4517 175.671 39.6321C175.671 38.8134 175.428 38.1556 174.942 37.6593C174.455 37.163 173.88 36.9144 173.215 36.9144C172.549 36.9144 171.973 37.163 171.487 37.6593C171.001 38.1556 170.758 38.8134 170.758 39.6321C170.758 40.4517 171.001 41.109 171.487 41.6054ZM170.436 36.7688C171.162 36.0064 172.088 35.6251 173.215 35.6251C174.341 35.6251 175.267 36.0064 175.993 36.7688C176.72 37.5315 177.084 38.486 177.084 39.6321C177.084 40.7791 176.72 41.7336 175.993 42.4959C175.267 43.2586 174.341 43.6396 173.215 43.6396C172.088 43.6396 171.162 43.2586 170.436 42.4959C169.709 41.7336 169.345 40.7791 169.345 39.6321C169.345 38.486 169.709 37.5315 170.436 36.7688Z" fill="#5F6368"/>
<path d="M179.632 43.3941H178.22V35.8706H179.571V37.0989H179.632C179.776 36.6897 180.07 36.3515 180.515 36.0855C180.961 35.8195 181.393 35.6863 181.813 35.6863C182.233 35.6863 182.585 35.7477 182.872 35.8706L182.335 37.191C182.15 37.1196 181.9 37.0835 181.582 37.0835C181.071 37.0835 180.617 37.2856 180.224 37.6902C179.829 38.0944 179.632 38.6244 179.632 39.2792V43.3941Z" fill="#5F6368"/>
<path d="M188.768 38.7264C188.737 38.2965 188.54 37.8874 188.177 37.4981C187.814 37.1093 187.273 36.9146 186.557 36.9146C186.035 36.9146 185.582 37.0786 185.198 37.406C184.814 37.7334 184.551 38.1737 184.407 38.7264H188.768ZM186.741 43.6398C185.605 43.6398 184.681 43.2613 183.97 42.5036C183.258 41.7462 182.903 40.7893 182.903 39.6323C182.903 38.5372 183.248 37.5952 183.939 36.8072C184.63 36.0191 185.513 35.6249 186.588 35.6249C187.704 35.6249 188.597 35.9884 189.267 36.715C189.937 37.4417 190.273 38.4144 190.273 39.6323L190.257 39.8938H184.316C184.356 40.6511 184.609 41.2499 185.075 41.6898C185.541 42.1301 186.086 42.35 186.711 42.35C187.724 42.35 188.41 41.9201 188.768 41.0603L190.027 41.5823C189.781 42.1658 189.377 42.6546 188.814 43.0489C188.251 43.4427 187.56 43.6398 186.741 43.6398Z" fill="#5F6368"/>
<path d="M68.8949 23.0721H71.6604L70.3009 19.319H70.2544L68.8949 23.0721ZM66.5362 26.3255L69.6734 18.006H70.8819L74.0191 26.3255H72.8339L72.0322 24.0713H68.5347L67.7214 26.3255H66.5362Z" fill="#5F6368"/>
<path d="M75.9249 26.3255L73.6242 20.6319H74.7861L76.4593 25.0473H76.4826L78.179 20.6319H79.3177L76.9938 26.3255H75.9249Z" fill="#5F6368"/>
<path d="M81.8738 25.5352C82.3154 25.5352 82.7162 25.3709 83.0764 25.0418C83.4366 24.7127 83.6167 24.3231 83.6167 23.8736C83.3146 23.6259 82.8615 23.5022 82.2573 23.5022C81.7381 23.5022 81.3468 23.6143 81.0837 23.8388C80.8202 24.0637 80.6886 24.3268 80.6886 24.6289C80.6886 24.9078 80.8086 25.1289 81.0488 25.2912C81.2887 25.4543 81.5638 25.5352 81.8738 25.5352ZM81.6995 26.5117C81.0953 26.5117 80.5899 26.3374 80.1832 25.9888C79.7765 25.6398 79.5732 25.1792 79.5732 24.6061C79.5732 23.9865 79.813 23.5001 80.2936 23.1474C80.7737 22.7951 81.3663 22.6191 82.0714 22.6191C82.6988 22.6191 83.2138 22.7349 83.6167 22.9677V22.8046C83.6167 22.3863 83.4732 22.0515 83.1868 21.7996C82.9001 21.5481 82.5478 21.4219 82.1295 21.4219C81.8195 21.4219 81.5385 21.4958 81.287 21.6427C81.0352 21.7904 80.8629 21.9913 80.77 22.2469L79.794 21.8286C79.9255 21.4879 80.1849 21.1721 80.5725 20.8816C80.9596 20.5911 81.4709 20.4459 82.1062 20.4459C82.8341 20.4459 83.4383 20.6592 83.9188 21.085C84.399 21.5112 84.6393 22.1116 84.6393 22.886V26.3253H83.6167V25.5352H83.5703C83.1441 26.1859 82.5204 26.5117 81.6995 26.5117Z" fill="#5F6368"/>
<path d="M87.0097 26.3255H85.9407V20.6319H87.0097V26.3255ZM87.0097 19.2028C86.8623 19.3497 86.6843 19.4235 86.4752 19.4235C86.266 19.4235 86.0876 19.3497 85.9407 19.2028C85.7933 19.0554 85.7195 18.8774 85.7195 18.6683C85.7195 18.4591 85.7933 18.2811 85.9407 18.1338C86.0876 17.9864 86.266 17.913 86.4752 17.913C86.6843 17.913 86.8623 17.9864 87.0097 18.1338C87.1566 18.2811 87.2304 18.4591 87.2304 18.6683C87.2304 18.8774 87.1566 19.0554 87.0097 19.2028Z" fill="#5F6368"/>
<path d="M89.4725 26.3255H88.4036V18.006H89.4725V26.3255Z" fill="#5F6368"/>
<path d="M92.6915 25.5352C93.133 25.5352 93.5339 25.3709 93.8941 25.0418C94.2543 24.7127 94.4344 24.3231 94.4344 23.8736C94.1323 23.6259 93.6791 23.5022 93.0749 23.5022C92.5558 23.5022 92.1644 23.6143 91.9013 23.8388C91.6378 24.0637 91.5063 24.3268 91.5063 24.6289C91.5063 24.9078 91.6262 25.1289 91.8665 25.2912C92.1063 25.4543 92.3815 25.5352 92.6915 25.5352ZM92.5172 26.5117C91.913 26.5117 91.4075 26.3374 91.0008 25.9888C90.5941 25.6398 90.3908 25.1792 90.3908 24.6061C90.3908 23.9865 90.6307 23.5001 91.1112 23.1474C91.5913 22.7951 92.1839 22.6191 92.889 22.6191C93.5164 22.6191 94.0314 22.7349 94.4344 22.9677V22.8046C94.4344 22.3863 94.2908 22.0515 94.0045 21.7996C93.7177 21.5481 93.3654 21.4219 92.9471 21.4219C92.6371 21.4219 92.3562 21.4958 92.1047 21.6427C91.8528 21.7904 91.6806 21.9913 91.5876 22.2469L90.6116 21.8286C90.7431 21.4879 91.0025 21.1721 91.3901 20.8816C91.7773 20.5911 92.2885 20.4459 92.9238 20.4459C93.6517 20.4459 94.2559 20.6592 94.7365 21.085C95.2166 21.5112 95.4569 22.1116 95.4569 22.886V26.3253H94.4344V25.5352H94.3879C93.9617 26.1859 93.338 26.5117 92.5172 26.5117Z" fill="#5F6368"/>
<path d="M99.5003 25.5352C99.9958 25.5352 100.422 25.3476 100.778 24.9721C101.134 24.5961 101.313 24.0986 101.313 23.4786C101.313 22.859 101.134 22.3614 100.778 21.9855C100.422 21.6099 99.9958 21.4219 99.5003 21.4219C98.9969 21.4219 98.5687 21.6078 98.2164 21.9801C97.864 22.3515 97.6877 22.8511 97.6877 23.4786C97.6877 24.1064 97.864 24.6061 98.2164 24.9775C98.5687 25.3497 98.9969 25.5352 99.5003 25.5352ZM99.6746 26.5117C99.2409 26.5117 98.8517 26.4183 98.5068 26.2328C98.162 26.0465 97.9043 25.8141 97.7341 25.5352H97.6877V26.3253H96.6652V18.0058H97.7341V20.6322L97.6877 21.4219H97.7341C97.9043 21.1431 98.162 20.9107 98.5068 20.7248C98.8517 20.5389 99.2409 20.4459 99.6746 20.4459C100.41 20.4459 101.046 20.7368 101.58 21.3174C102.115 21.8983 102.382 22.6191 102.382 23.4786C102.382 24.3384 102.115 25.0592 101.58 25.6398C101.046 26.2208 100.41 26.5117 99.6746 26.5117Z" fill="#5F6368"/>
<path d="M104.369 26.3255H103.3V18.006H104.369V26.3255Z" fill="#5F6368"/>
<path d="M109.726 22.7933C109.702 22.4679 109.553 22.1584 109.278 21.8637C109.003 21.5695 108.594 21.4218 108.052 21.4218C107.657 21.4218 107.314 21.5459 107.024 21.794C106.733 22.0418 106.534 22.375 106.426 22.7933H109.726ZM108.192 26.5115C107.332 26.5115 106.633 26.2252 106.095 25.6517C105.556 25.0786 105.287 24.3544 105.287 23.4784C105.287 22.6497 105.548 21.9372 106.071 21.3409C106.594 20.7445 107.262 20.4462 108.075 20.4462C108.92 20.4462 109.596 20.7213 110.103 21.2711C110.61 21.821 110.864 22.5572 110.864 23.4784L110.853 23.6764H106.356C106.387 24.2499 106.578 24.703 106.931 25.0354C107.283 25.3687 107.696 25.5351 108.168 25.5351C108.936 25.5351 109.454 25.2097 109.726 24.5594L110.678 24.9545C110.493 25.3956 110.186 25.7658 109.761 26.0642C109.334 26.3621 108.811 26.5115 108.192 26.5115Z" fill="#5F6368"/>
<path d="M115.558 26.3255H114.489V20.6319H115.558V26.3255ZM115.558 19.2028C115.411 19.3497 115.233 19.4235 115.024 19.4235C114.815 19.4235 114.636 19.3497 114.489 19.2028C114.342 19.0554 114.268 18.8774 114.268 18.6683C114.268 18.4591 114.342 18.2811 114.489 18.1338C114.636 17.9864 114.815 17.913 115.024 17.913C115.233 17.913 115.411 17.9864 115.558 18.1338C115.705 18.2811 115.779 18.4591 115.779 18.6683C115.779 18.8774 115.705 19.0554 115.558 19.2028Z" fill="#5F6368"/>
<path d="M117.975 20.6321V21.4218H118.021C118.176 21.1512 118.42 20.9205 118.753 20.7304C119.086 20.5408 119.442 20.4462 119.822 20.4462C120.527 20.4462 121.065 20.6628 121.437 21.0968C121.809 21.5305 121.995 22.1115 121.995 22.8393V26.3256H120.926V23.0024C120.926 21.9492 120.457 21.4218 119.52 21.4218C119.078 21.4218 118.718 21.5981 118.439 21.9509C118.161 22.3032 118.021 22.7119 118.021 23.1767V26.3256H116.952V20.6321H117.975Z" fill="#5F6368"/>
<path d="M128.269 26.4183C127.673 26.4183 127.217 26.2598 126.904 25.9423C126.59 25.6244 126.433 25.175 126.433 24.594V21.6078H125.434V20.6322H126.433V18.8889H127.502V20.6322H128.896V21.6078H127.502V24.5127C127.502 25.1327 127.758 25.4422 128.269 25.4422C128.463 25.4422 128.625 25.4115 128.757 25.3497L129.129 26.2676C128.896 26.3681 128.61 26.4183 128.269 26.4183Z" fill="#5F6368"/>
<path d="M131.046 18.006V20.632L131 21.4217H131.046C131.201 21.1511 131.445 20.9204 131.778 20.7303C132.111 20.5407 132.467 20.4461 132.847 20.4461C133.552 20.4461 134.09 20.6627 134.462 21.0968C134.834 21.5304 135.02 22.1118 135.02 22.8393V26.3255H133.951V23.0023C133.951 21.9491 133.482 21.4217 132.545 21.4217C132.103 21.4217 131.743 21.5981 131.464 21.9508C131.186 22.3031 131.046 22.7119 131.046 23.1766V26.3255H129.977V18.006H131.046Z" fill="#5F6368"/>
<path d="M140.388 22.7933C140.364 22.4679 140.215 22.1584 139.941 21.8637C139.665 21.5695 139.256 21.4218 138.715 21.4218C138.32 21.4218 137.977 21.5459 137.686 21.794C137.396 22.0418 137.196 22.375 137.088 22.7933H140.388ZM138.854 26.5115C137.994 26.5115 137.295 26.2252 136.757 25.6517C136.218 25.0786 135.949 24.3544 135.949 23.4784C135.949 22.6497 136.211 21.9372 136.733 21.3409C137.256 20.7445 137.924 20.4462 138.738 20.4462C139.582 20.4462 140.258 20.7213 140.765 21.2711C141.273 21.821 141.526 22.5572 141.526 23.4784L141.515 23.6764H137.018C137.049 24.2499 137.241 24.703 137.593 25.0354C137.945 25.3687 138.358 25.5351 138.831 25.5351C139.598 25.5351 140.117 25.2097 140.388 24.5594L141.341 24.9545C141.155 25.3956 140.849 25.7658 140.423 26.0642C139.997 26.3621 139.474 26.5115 138.854 26.5115Z" fill="#5F6368"/>
<g filter="url(#filter0_d_1007_3661)">
<mask id="mask0_1007_3661" style="mask-type:alpha" maskUnits="userSpaceOnUse" x="9" y="10" width="47" height="41">
<path fill-rule="evenodd" clip-rule="evenodd" d="M55.0885 10.8932H9.64825V47.3077C9.64825 49.0266 11.0417 50.42 12.7606 50.42H51.9762C53.6951 50.42 55.0885 49.0266 55.0885 47.3077V10.8932ZM27.3886 14.9393C26.1854 14.9393 25.21 15.9147 25.21 17.1179C25.21 18.3211 26.1854 19.2966 27.3886 19.2966H37.3482C38.5514 19.2966 39.5268 18.3211 39.5268 17.1179C39.5268 15.9147 38.5514 14.9393 37.3482 14.9393H27.3886Z" fill="#EEEEEE"/>
</mask>
<g mask="url(#mask0_1007_3661)">
<rect x="9.64825" y="10.8932" width="45.4403" height="39.5268" fill="#EEEEEE"/>
<mask id="mask1_1007_3661" style="mask-type:alpha" maskUnits="userSpaceOnUse" x="12" y="27" width="40" height="40">
<circle cx="32.3684" cy="47.3077" r="19.6078" fill="#D9D9D9"/>
</mask>
<g mask="url(#mask1_1007_3661)">
<path d="M15.7556 27.6579V51.8948H24.5935L32.3685 38.4292H52.1178V27.6579H15.7556ZM12.605 27.6579V51.8948H24.5935L32.3685 38.4292H52.1178V27.6579H12.605Z" fill="#DB4437"/>
<path d="M12.6192 67.1566H31.4174L40.1436 58.4304V51.8974L24.5934 51.8949L12.6192 31.358V67.1566ZM12.6192 67.1566H31.4174L40.1436 58.4304V51.8974L24.5934 51.8949L12.6192 31.358V67.1566Z" fill="#0F9D58"/>
<path d="M32.3684 38.429L40.1435 51.8947L31.4198 67.1568H52.1177V38.429H32.3684ZM32.3684 38.429L40.1435 51.8947L31.4198 67.1568H52.1177V38.429H32.3684Z" fill="#FFCD40"/>
<path d="M32.3684 38.429C37.327 38.429 41.3465 42.4489 41.3465 47.4075C41.3465 52.3657 37.327 56.3856 32.3684 56.3856C27.4098 56.3856 23.3903 52.3657 23.3903 47.4075C23.3903 42.4489 27.4098 38.429 32.3684 38.429Z" fill="#F1F1F1"/>
<path d="M32.3684 40.2246C36.3352 40.2246 39.5509 43.4403 39.5509 47.4075C39.5509 51.3739 36.3352 54.5896 32.3684 54.5896C28.4017 54.5896 25.186 51.3739 25.186 47.4075C25.186 43.4403 28.4017 40.2246 32.3684 40.2246Z" fill="#4285F4"/>
</g>
<rect x="9.64825" y="10.8932" width="45.4403" height="19.6078" fill="black" fill-opacity="0.08"/>
</g>
</g>
</g>
<defs>
<filter id="filter0_d_1007_3661" x="9.64825" y="10.8932" width="45.4403" height="39.8381" filterUnits="userSpaceOnUse" color-interpolation-filters="sRGB">
<feFlood flood-opacity="0" result="BackgroundImageFix"/>
<feColorMatrix in="SourceAlpha" type="matrix" values="0 0 0 0 0 0 0 0 0 0 0 0 0 0 0 0 0 0 127 0" result="hardAlpha"/>
<feOffset dy="0.311235"/>
<feComposite in2="hardAlpha" operator="out"/>
<feColorMatrix type="matrix" values="0 0 0 0 0 0 0 0 0 0 0 0 0 0 0 0 0 0 0.2 0"/>
<feBlend mode="normal" in2="BackgroundImageFix" result="effect1_dropShadow_1007_3661"/>
<feBlend mode="normal" in="SourceGraphic" in2="effect1_dropShadow_1007_3661" result="shape"/>
</filter>
<clipPath id="clip0_1007_3661">
<rect width="205" height="61.417" fill="white" transform="matrix(1 0 0 -1 0 61.417)"/>
</clipPath>
</defs>
</svg>
