<svg width="205" height="64" viewBox="0 0 205 64" fill="none" xmlns="http://www.w3.org/2000/svg">
<rect x="0.25" y="0.25" width="204.5" height="63.5" fill="white"/>
<path d="M58.308 25.4155C57.466 23.3895 55.758 21.202 54.4205 20.5105C55.3745 22.3581 56.0365 24.3423 56.383 26.3925L56.3865 26.425C54.1955 20.9625 50.48 18.76 47.4455 13.964C47.2888 13.7195 47.1366 13.4721 46.989 13.222C46.9129 13.0914 46.8417 12.9579 46.7755 12.822C46.6496 12.5783 46.5527 12.3207 46.4865 12.0545C46.4866 12.0422 46.4821 12.0303 46.474 12.0211C46.4659 12.0119 46.4547 12.006 46.4425 12.0045C46.4306 12.0012 46.4179 12.0012 46.406 12.0045C46.4035 12.0045 46.3995 12.009 46.3965 12.01C46.3935 12.011 46.387 12.0155 46.3825 12.0175L46.39 12.0045C41.5225 14.8545 39.871 20.1305 39.719 22.7695C37.7751 22.9031 35.9167 23.6194 34.386 24.825C34.2263 24.6897 34.0594 24.5632 33.886 24.446C33.4444 22.9005 33.4256 21.2648 33.8315 19.7095C32.044 20.5755 30.4556 21.803 29.167 23.3145H29.158C28.39 22.341 28.444 19.131 28.488 18.4605C28.2608 18.5518 28.0439 18.667 27.841 18.804C27.163 19.2879 26.5292 19.8308 25.947 20.4265C25.2836 21.0992 24.6776 21.8262 24.1355 22.6V22.603V22.5995C22.8896 24.3658 22.0059 26.3614 21.5355 28.471L21.5095 28.599C21.438 29.001 21.3745 29.4045 21.319 29.809C21.319 29.8235 21.316 29.837 21.3145 29.8515C21.1449 30.7332 21.0398 31.626 21 32.523V32.623C21.0042 37.4751 22.8285 42.1492 26.1123 45.7213C29.396 49.2935 33.9003 51.5039 38.7349 51.9156C43.5696 52.3274 48.3828 50.9106 52.2233 47.9452C56.0639 44.9798 58.6523 40.6815 59.477 35.9C59.5095 35.65 59.536 35.4025 59.565 35.15C59.9641 31.8511 59.532 28.5048 58.308 25.4155ZM35.973 40.5845C36.0635 40.628 36.1485 40.675 36.2415 40.7165L36.255 40.725C36.161 40.68 36.067 40.6332 35.973 40.5845ZM56.388 26.4295V26.411L56.3915 26.4315L56.388 26.4295Z" fill="url(#paint0_linear_236_2597)"/>
<path d="M58.308 25.4155C57.466 23.3895 55.758 21.202 54.4205 20.5105C55.3745 22.3581 56.0365 24.3423 56.383 26.3925V26.411L56.3865 26.4315C57.8801 30.7058 57.6641 35.3919 55.7835 39.5105C53.5625 44.276 48.1865 49.1605 39.7715 48.923C30.679 48.6655 22.6715 41.9185 21.1745 33.0815C20.902 31.688 21.1745 30.9815 21.3115 29.849C21.1246 30.7287 21.0203 31.6239 21 32.523V32.623C21.0042 37.4752 22.8285 42.1492 26.1123 45.7214C29.396 49.2935 33.9003 51.5039 38.7349 51.9157C43.5696 52.3274 48.3828 50.9106 52.2233 47.9452C56.0639 44.9798 58.6523 40.6816 59.477 35.9C59.5095 35.65 59.536 35.4025 59.565 35.15C59.9641 31.8511 59.532 28.5048 58.308 25.4155Z" fill="url(#paint1_radial_236_2597)"/>
<path d="M58.308 25.4155C57.466 23.3895 55.758 21.202 54.4205 20.5105C55.3745 22.3581 56.0365 24.3423 56.383 26.3925V26.411L56.3865 26.4315C57.8801 30.7058 57.6641 35.3919 55.7835 39.5105C53.5625 44.276 48.1865 49.1605 39.7715 48.923C30.679 48.6655 22.6715 41.9185 21.1745 33.0815C20.902 31.688 21.1745 30.9815 21.3115 29.849C21.1246 30.7287 21.0203 31.6239 21 32.523V32.623C21.0042 37.4752 22.8285 42.1492 26.1123 45.7214C29.396 49.2935 33.9003 51.5039 38.7349 51.9157C43.5696 52.3274 48.3828 50.9106 52.2233 47.9452C56.0639 44.9798 58.6523 40.6816 59.477 35.9C59.5095 35.65 59.536 35.4025 59.565 35.15C59.9641 31.8511 59.532 28.5048 58.308 25.4155Z" fill="url(#paint2_radial_236_2597)"/>
<path d="M48.891 27.6935C48.933 27.723 48.972 27.7525 49.0115 27.782C48.5247 26.9189 47.9188 26.1286 47.2115 25.4345C41.1885 19.4105 45.633 12.373 46.3825 12.0155L46.39 12.0045C41.5225 14.8545 39.871 20.1305 39.719 22.7695C39.945 22.754 40.169 22.735 40.4 22.735C42.1271 22.7382 43.8225 23.1987 45.314 24.0696C46.8054 24.9406 48.0395 26.1909 48.891 27.6935Z" fill="url(#paint3_radial_236_2597)"/>
<path d="M40.4124 28.8965C40.3804 29.3785 38.6774 31.041 38.0819 31.041C32.5714 31.041 31.6769 34.3745 31.6769 34.3745C31.9209 37.1815 33.8769 39.4935 36.2414 40.7165C36.349 40.7714 36.4581 40.8234 36.5684 40.8725C36.7581 40.9565 36.9478 41.0342 37.1374 41.1055C37.9489 41.3927 38.7989 41.5567 39.6589 41.592C49.3174 42.045 51.1884 30.042 44.2184 26.559C45.8627 26.345 47.5279 26.7493 48.8909 27.6935C48.0395 26.1909 46.8053 24.9405 45.3139 24.0696C43.8225 23.1986 42.127 22.7381 40.3999 22.735C40.1699 22.735 39.9449 22.754 39.7189 22.7695C37.7751 22.9031 35.9166 23.6194 34.3859 24.825C34.6814 25.075 35.0149 25.409 35.7174 26.1015C37.0324 27.397 40.4049 28.739 40.4124 28.8965Z" fill="url(#paint4_radial_236_2597)"/>
<path d="M40.4124 28.8965C40.3804 29.3785 38.6774 31.041 38.0819 31.041C32.5714 31.041 31.6769 34.3745 31.6769 34.3745C31.9209 37.1815 33.8769 39.4935 36.2414 40.7165C36.349 40.7714 36.4581 40.8234 36.5684 40.8725C36.7581 40.9565 36.9478 41.0342 37.1374 41.1055C37.9489 41.3927 38.7989 41.5567 39.6589 41.592C49.3174 42.045 51.1884 30.042 44.2184 26.559C45.8627 26.345 47.5279 26.7493 48.8909 27.6935C48.0395 26.1909 46.8053 24.9405 45.3139 24.0696C43.8225 23.1986 42.127 22.7381 40.3999 22.735C40.1699 22.735 39.9449 22.754 39.7189 22.7695C37.7751 22.9031 35.9166 23.6194 34.3859 24.825C34.6814 25.075 35.0149 25.409 35.7174 26.1015C37.0324 27.397 40.4049 28.739 40.4124 28.8965Z" fill="url(#paint5_radial_236_2597)"/>
<path d="M33.4825 24.1804C33.6175 24.2664 33.7508 24.3549 33.8825 24.4459C33.4409 22.9004 33.4221 21.2647 33.828 19.7094C32.0404 20.5754 30.4521 21.803 29.1635 23.3144C29.258 23.3119 32.069 23.2614 33.4825 24.1804Z" fill="url(#paint6_radial_236_2597)"/>
<path d="M21.177 33.0815C22.6725 41.9185 30.6815 48.6655 39.774 48.923C48.189 49.161 53.565 44.276 55.786 39.5105C57.6665 35.3919 57.8826 30.7057 56.389 26.4315V26.413C56.389 26.3985 56.386 26.39 56.389 26.3945L56.3925 26.427C57.08 30.9155 54.797 35.264 51.228 38.2045L51.217 38.2295C44.263 43.893 37.608 41.6465 36.261 40.7295C36.167 40.6845 36.073 40.6377 35.979 40.589C31.9245 38.651 30.2495 34.957 30.6085 31.789C29.646 31.8032 28.7001 31.538 27.8853 31.0255C27.0706 30.513 26.4219 29.7752 26.018 28.9015C27.0823 28.2495 28.2958 27.8809 29.543 27.8308C30.7901 27.7807 32.0293 28.0509 33.1425 28.6155C35.4374 29.6573 38.0488 29.76 40.4185 28.9015C40.411 28.744 37.0385 27.4015 35.7235 26.1065C35.021 25.414 34.6875 25.0805 34.392 24.83C34.2323 24.6947 34.0653 24.5682 33.892 24.451C33.7594 24.3613 33.6261 24.2728 33.492 24.1855C32.0785 23.2665 29.2675 23.317 29.1745 23.3195H29.1655C28.3975 22.346 28.4515 19.136 28.4955 18.4655C28.2683 18.5568 28.0514 18.672 27.8485 18.809C27.1705 19.2929 26.5367 19.8358 25.9545 20.4315C25.2886 21.1023 24.6802 21.8277 24.1355 22.6V22.603V22.5995C22.8896 24.3658 22.0059 26.3614 21.5355 28.471C21.526 28.5105 20.8375 31.5205 21.177 33.0815Z" fill="url(#paint7_radial_236_2597)"/>
<path d="M47.2124 25.4345C47.9199 26.1294 48.5259 26.9205 49.0124 27.7845C49.1129 27.8593 49.2099 27.9387 49.3029 28.0225C53.6964 32.0725 51.3944 37.7975 51.2229 38.205C54.7919 35.2645 57.0729 30.916 56.3874 26.4275C54.1954 20.9625 50.4799 18.76 47.4454 13.964C47.2887 13.7195 47.1365 13.4721 46.9889 13.222C46.9129 13.0914 46.8416 12.9579 46.7754 12.822C46.6496 12.5783 46.5526 12.3207 46.4864 12.0545C46.4865 12.0422 46.4821 12.0303 46.474 12.0211C46.4659 12.0119 46.4546 12.006 46.4424 12.0045C46.4305 12.0012 46.4179 12.0012 46.4059 12.0045C46.4034 12.0045 46.3994 12.009 46.3964 12.01C46.3934 12.011 46.3869 12.0155 46.3824 12.0175C45.6329 12.373 41.1884 19.4105 47.2124 25.4345Z" fill="url(#paint8_radial_236_2597)"/>
<path d="M49.2999 28.02C49.2068 27.9362 49.1099 27.8568 49.0094 27.782C48.9699 27.7525 48.9309 27.723 48.8889 27.6935C47.5259 26.7494 45.8607 26.3451 44.2164 26.559C51.1864 30.044 49.3164 42.045 39.6569 41.592C38.7969 41.5567 37.9469 41.3927 37.1354 41.1055C36.9458 41.0345 36.7561 40.9569 36.5664 40.8725C36.4562 40.8233 36.3471 40.7712 36.2394 40.7165L36.2529 40.725C37.5999 41.6445 44.2529 43.891 51.2089 38.225L51.2199 38.2C51.3934 37.795 53.6954 32.0685 49.2999 28.02Z" fill="url(#paint9_radial_236_2597)"/>
<path d="M31.677 34.3745C31.677 34.3745 32.5715 31.041 38.082 31.041C38.6775 31.041 40.382 29.3785 40.4125 28.8965C38.0428 29.755 35.4314 29.6523 33.1365 28.6105C32.0233 28.0459 30.7841 27.7757 29.537 27.8258C28.2898 27.8759 27.0763 28.2445 26.012 28.8965C26.4159 29.7702 27.0646 30.508 27.8793 31.0205C28.6941 31.533 29.64 31.7982 30.6025 31.784C30.2435 34.9525 31.9185 38.6465 35.973 40.584C36.0635 40.6275 36.1485 40.6745 36.2415 40.716C33.875 39.4935 31.921 37.1815 31.677 34.3745Z" fill="url(#paint10_radial_236_2597)"/>
<path d="M58.308 25.4155C57.466 23.3895 55.758 21.202 54.4205 20.5105C55.3745 22.3581 56.0365 24.3423 56.383 26.3925L56.3865 26.425C54.1955 20.9625 50.48 18.76 47.4455 13.964C47.2888 13.7195 47.1366 13.4721 46.989 13.222C46.9129 13.0914 46.8417 12.9579 46.7755 12.822C46.6496 12.5783 46.5527 12.3207 46.4865 12.0545C46.4866 12.0422 46.4821 12.0303 46.474 12.0211C46.4659 12.0119 46.4547 12.006 46.4425 12.0045C46.4306 12.0012 46.4179 12.0012 46.406 12.0045C46.4035 12.0045 46.3995 12.009 46.3965 12.01C46.3935 12.011 46.387 12.0155 46.3825 12.0175L46.39 12.0045C41.5225 14.8545 39.871 20.1305 39.719 22.7695C39.945 22.754 40.169 22.735 40.4 22.735C42.1271 22.7382 43.8225 23.1986 45.314 24.0696C46.8054 24.9405 48.0395 26.1909 48.891 27.6935C47.5279 26.7494 45.8628 26.3451 44.2185 26.559C51.1885 30.044 49.3185 42.045 39.659 41.592C38.7989 41.5567 37.949 41.3927 37.1375 41.1055C36.9478 41.0345 36.7582 40.9568 36.5685 40.8725C36.4582 40.8232 36.3492 40.7712 36.2415 40.7165L36.255 40.725C36.161 40.68 36.067 40.6332 35.973 40.5845C36.0635 40.628 36.1485 40.675 36.2415 40.7165C33.875 39.4935 31.921 37.1815 31.677 34.3745C31.677 34.3745 32.5715 31.041 38.082 31.041C38.6775 31.041 40.382 29.3785 40.4125 28.8965C40.405 28.739 37.0325 27.3965 35.7175 26.1015C35.015 25.409 34.6815 25.0755 34.386 24.825C34.2263 24.6897 34.0594 24.5632 33.886 24.446C33.4444 22.9005 33.4256 21.2648 33.8315 19.7095C32.044 20.5755 30.4556 21.803 29.167 23.3145H29.158C28.39 22.341 28.444 19.131 28.488 18.4605C28.2608 18.5518 28.0439 18.667 27.841 18.804C27.163 19.2879 26.5292 19.8308 25.947 20.4265C25.2836 21.0992 24.6776 21.8262 24.1355 22.6V22.603V22.5995C22.8896 24.3658 22.0059 26.3614 21.5355 28.471L21.5095 28.599C21.473 28.7695 21.3095 29.6355 21.286 29.8215C21.286 29.807 21.286 29.8355 21.286 29.8215C21.1365 30.7154 21.0409 31.6176 21 32.523V32.623C21.0042 37.4751 22.8285 42.1492 26.1123 45.7213C29.396 49.2935 33.9003 51.5039 38.7349 51.9156C43.5696 52.3274 48.3828 50.9106 52.2233 47.9452C56.0639 44.9798 58.6523 40.6815 59.477 35.9C59.5095 35.65 59.536 35.4025 59.565 35.15C59.9641 31.8511 59.532 28.5048 58.308 25.4155ZM56.3855 26.411L56.389 26.4315L56.3855 26.411Z" fill="url(#paint11_linear_236_2597)"/>
<path d="M74.1451 18.1513H78.77V19.4064H75.469V21.0998H78.77V22.342H75.469V25.0843H74.1451V18.1513ZM80.3431 17.6699C80.4455 17.6668 80.5475 17.6849 80.6425 17.7231C80.7376 17.7613 80.8238 17.8187 80.8956 17.8918C80.9674 17.9648 81.0234 18.0519 81.06 18.1476C81.0966 18.2433 81.113 18.3455 81.1082 18.4479C81.0937 18.6425 81.0061 18.8245 80.863 18.9573C80.7199 19.0901 80.5319 19.1639 80.3367 19.1639C80.1415 19.1639 79.9535 19.0901 79.8104 18.9573C79.6673 18.8245 79.5797 18.6425 79.5651 18.4479C79.564 18.3454 79.5833 18.2437 79.622 18.1488C79.6607 18.0539 79.718 17.9677 79.7904 17.8952C79.8629 17.8227 79.9491 17.7655 80.044 17.7268C80.139 17.6881 80.2406 17.6687 80.3431 17.6699ZM79.7027 19.9522H80.9921V25.0843H79.7027V19.9522ZM84.8003 21.3749C84.6191 21.2312 84.3955 21.1511 84.1642 21.1471C83.6355 21.1471 83.3304 21.491 83.3304 22.2389V25.0843H82.0409V19.9522H83.2831V20.6915C83.3785 20.455 83.5453 20.2542 83.7603 20.1171C83.9752 19.9799 84.2276 19.9133 84.4823 19.9264C84.789 19.9276 85.0883 20.0204 85.3419 20.1929L84.8003 21.3749ZM85.3419 22.5397C85.3321 22.1884 85.3931 21.8388 85.5213 21.5115C85.6496 21.1843 85.8424 20.8863 86.0882 20.6352C86.3341 20.3841 86.6281 20.1851 86.9525 20.05C87.2769 19.915 87.6253 19.8466 87.9767 19.8491C88.324 19.8346 88.6705 19.8921 88.9945 20.0179C89.3185 20.1437 89.613 20.3351 89.8596 20.58C90.1061 20.825 90.2995 21.1182 90.4274 21.4414C90.5553 21.7646 90.615 22.1107 90.6029 22.4581V22.9953H86.6185C86.6826 23.3161 86.8617 23.6024 87.1221 23.8003C87.3826 23.9982 87.7064 24.0941 88.0326 24.0699C88.2981 24.0817 88.5614 24.0161 88.7903 23.881C89.0192 23.746 89.204 23.5473 89.322 23.3091L90.4138 23.9624C90.1565 24.3584 89.7992 24.6793 89.378 24.8929C88.9569 25.1065 88.4868 25.2051 88.0154 25.1788C87.6594 25.2072 87.3016 25.1588 86.966 25.0369C86.6304 24.9149 86.3249 24.7224 86.0701 24.4721C85.8154 24.2219 85.6174 23.9199 85.4896 23.5865C85.3617 23.2531 85.307 22.8961 85.329 22.5397H85.3419ZM86.6314 21.9638H89.322C89.2564 21.6583 89.082 21.3871 88.8314 21.2005C88.5808 21.014 88.271 20.9247 87.9595 20.9494C87.6542 20.9374 87.3541 21.032 87.111 21.2171C86.8678 21.4022 86.6967 21.6662 86.6271 21.9638H86.6314ZM90.9295 19.9522H91.8451V19.6986C91.8451 18.306 92.4339 17.7258 93.7234 17.7258H94.179V18.8562H93.8093C93.2033 18.8562 93.07 19.0625 93.07 19.7158V19.9694H94.179V21.1299H93.1001V25.0843H91.8451V21.1299H90.9295V19.9522ZM94.424 22.5311C94.4181 22.1788 94.4833 21.829 94.6157 21.5025C94.7481 21.1759 94.945 20.8794 95.1945 20.6307C95.4441 20.382 95.7412 20.1861 96.0681 20.0547C96.3951 19.9234 96.7452 19.8593 97.0974 19.8663C97.4474 19.8663 97.7939 19.9352 98.1172 20.0691C98.4406 20.203 98.7343 20.3993 98.9818 20.6468C99.2292 20.8942 99.4255 21.188 99.5595 21.5113C99.6934 21.8347 99.7623 22.1812 99.7623 22.5311C99.7623 22.8811 99.6934 23.2276 99.5595 23.5509C99.4255 23.8743 99.2292 24.168 98.9818 24.4155C98.7343 24.6629 98.4406 24.8592 98.1172 24.9932C97.7939 25.1271 97.4474 25.196 97.0974 25.196C96.7399 25.2119 96.3829 25.1531 96.0493 25.0235C95.7157 24.8939 95.4127 24.6963 95.1596 24.4432C94.9065 24.1901 94.7089 23.8871 94.5793 23.5535C94.4497 23.2199 94.3909 22.8629 94.4068 22.5053L94.424 22.5311ZM98.5029 22.5311C98.5135 22.3403 98.485 22.1493 98.4193 21.9699C98.3535 21.7904 98.2519 21.6263 98.1205 21.4875C97.9892 21.3486 97.8309 21.2381 97.6554 21.1625C97.4798 21.0869 97.2907 21.0479 97.0996 21.0479C96.9085 21.0479 96.7194 21.0869 96.5438 21.1625C96.3683 21.2381 96.21 21.3486 96.0786 21.4875C95.9473 21.6263 95.8456 21.7904 95.7799 21.9699C95.7141 22.1493 95.6857 22.3403 95.6962 22.5311C95.6857 22.722 95.7141 22.9129 95.7799 23.0924C95.8456 23.2718 95.9473 23.436 96.0786 23.5748C96.21 23.7136 96.3683 23.8242 96.5438 23.8998C96.7194 23.9754 96.9085 24.0143 97.0996 24.0143C97.2907 24.0143 97.4798 23.9754 97.6554 23.8998C97.8309 23.8242 97.9892 23.7136 98.1205 23.5748C98.2519 23.436 98.3535 23.2718 98.4193 23.0924C98.485 22.9129 98.5135 22.722 98.5029 22.5311ZM101.533 22.4753L99.6849 19.9694H101.194L102.285 21.5469L103.403 19.9694H104.912L103.033 22.4624L105.015 25.0843H103.489L102.264 23.4166L101.082 25.0843H99.556L101.533 22.4753ZM112.58 21.4996C112.862 21.3665 113.1 21.1535 113.264 20.887C113.427 20.6205 113.509 20.312 113.499 19.9995C113.499 18.8777 112.64 18.1556 111.35 18.1556H108.384V25.0843H111.445C112.734 25.0843 113.637 24.3407 113.637 23.1286C113.653 22.7806 113.559 22.4364 113.37 22.1443C113.18 21.8521 112.904 21.6267 112.58 21.4996ZM109.18 18.8777H111.329C112.188 18.8777 112.696 19.3333 112.696 19.9995C112.696 20.6657 112.24 21.1557 111.406 21.1557H109.175L109.18 18.8777ZM111.436 24.3579H109.18V21.8864H111.402C112.347 21.8864 112.842 22.3893 112.842 23.1243C112.842 23.8593 112.292 24.3579 111.436 24.3579ZM115.33 20.9193V19.9608H114.582V25.0843H115.352V22.2775C115.352 21.1471 115.842 20.6528 116.697 20.6528C116.918 20.6446 117.136 20.7014 117.325 20.8162L117.647 20.0769C117.383 19.9361 117.086 19.8693 116.787 19.8835C116.461 19.8632 116.138 19.956 115.873 20.1463C115.607 20.3366 115.416 20.6127 115.33 20.9279V20.9193ZM120.342 19.8491C119.992 19.8456 119.644 19.9122 119.319 20.045C118.995 20.1778 118.7 20.3741 118.453 20.6224C118.206 20.8707 118.01 21.1659 117.878 21.4907C117.747 21.8156 117.681 22.1634 117.686 22.5139C117.678 22.8654 117.742 23.2149 117.872 23.5413C118.003 23.8677 118.198 24.1644 118.446 24.4136C118.694 24.6628 118.99 24.8594 119.316 24.9916C119.641 25.1238 119.99 25.189 120.342 25.1831C120.701 25.1975 121.06 25.1392 121.396 25.0117C121.732 24.8842 122.039 24.6901 122.298 24.441C122.558 24.1919 122.764 23.893 122.905 23.5622C123.046 23.2315 123.118 22.8756 123.118 22.5161C123.118 22.1566 123.046 21.8007 122.905 21.47C122.764 21.1392 122.558 20.8403 122.298 20.5912C122.039 20.3421 121.732 20.148 121.396 20.0205C121.06 19.8929 120.701 19.8346 120.342 19.8491ZM120.342 24.4438C120.09 24.4458 119.84 24.3965 119.608 24.2989C119.376 24.2013 119.166 24.0575 118.991 23.8761C118.816 23.6948 118.68 23.4797 118.591 23.2441C118.501 23.0084 118.461 22.7571 118.472 22.5053C118.46 22.2514 118.5 21.9977 118.588 21.7594C118.677 21.5212 118.814 21.3035 118.989 21.1195C119.164 20.9355 119.375 20.789 119.609 20.6889C119.843 20.5888 120.094 20.5372 120.348 20.5372C120.603 20.5372 120.854 20.5888 121.088 20.6889C121.322 20.789 121.533 20.9355 121.708 21.1195C121.883 21.3035 122.02 21.5212 122.108 21.7594C122.197 21.9977 122.237 22.2514 122.225 22.5053C122.235 22.7584 122.194 23.011 122.104 23.2477C122.014 23.4844 121.877 23.7003 121.701 23.8824C121.525 24.0645 121.313 24.2089 121.08 24.3069C120.846 24.4049 120.595 24.4544 120.342 24.4524V24.4438ZM129.256 23.9882L127.731 19.9522H127.009L125.44 24.014L124.15 19.9522H123.334L125.014 25.0843H125.775L127.348 21.0182L128.925 25.0843H129.626L131.406 19.9565H130.597L129.256 23.9882ZM134.148 22.1185C133.348 21.9552 132.734 21.852 132.734 21.319C132.734 20.7861 133.056 20.5024 133.843 20.5024C134.118 20.4951 134.39 20.5565 134.636 20.681C134.881 20.8056 135.092 20.9895 135.248 21.2159L135.893 20.7861C135.652 20.4807 135.342 20.2366 134.989 20.0737C134.635 19.9109 134.249 19.8339 133.86 19.8491C132.648 19.8491 131.951 20.5411 131.951 21.3362C131.951 22.3635 132.893 22.5999 133.774 22.7718C134.526 22.9223 135.227 23.0383 135.227 23.6057C135.227 24.173 134.797 24.4997 134.015 24.4997C133.69 24.5131 133.368 24.4431 133.078 24.2963C132.788 24.1496 132.541 23.931 132.36 23.6616L131.685 24.1172C131.946 24.4782 132.295 24.7665 132.699 24.9545C133.103 25.1426 133.549 25.2243 133.993 25.1917C135.334 25.1917 136.017 24.4051 136.017 23.5971C136.009 22.544 135.029 22.2947 134.148 22.1271V22.1185ZM139.306 19.8491C138.952 19.8432 138.6 19.9088 138.273 20.0419C137.945 20.175 137.647 20.3728 137.398 20.6236C137.148 20.8744 136.951 21.173 136.82 21.5015C136.688 21.83 136.625 22.1817 136.632 22.5354C136.622 22.8906 136.686 23.244 136.819 23.5734C136.952 23.9028 137.152 24.2012 137.406 24.4498C137.659 24.6984 137.962 24.8918 138.294 25.018C138.626 25.1442 138.981 25.2004 139.336 25.1831C139.812 25.2047 140.286 25.0961 140.705 24.869C141.125 24.6418 141.475 24.3046 141.717 23.8937L141.055 23.5068C140.893 23.819 140.645 24.0781 140.34 24.2533C140.036 24.4286 139.687 24.5126 139.336 24.4954C138.858 24.521 138.389 24.3614 138.027 24.0499C137.664 23.7385 137.436 23.2992 137.389 22.8234H141.919V22.471C141.93 22.1251 141.871 21.7806 141.743 21.4587C141.616 21.1368 141.425 20.8443 141.18 20.5994C140.936 20.3545 140.644 20.1623 140.322 20.0348C140 19.9072 139.656 19.8469 139.31 19.8577L139.306 19.8491ZM137.41 22.1271C137.486 21.6805 137.718 21.2755 138.066 20.9848C138.413 20.6941 138.853 20.5368 139.306 20.5411C139.755 20.515 140.198 20.6666 140.537 20.9632C140.876 21.2598 141.085 21.6778 141.119 22.1271H137.41ZM145.061 19.8749C144.734 19.8535 144.41 19.9459 144.144 20.1363C143.877 20.3267 143.685 20.6033 143.599 20.9193V19.9608H142.847V25.0843H143.617V22.2775C143.617 21.1471 144.111 20.6528 144.966 20.6528C145.187 20.6446 145.405 20.7014 145.594 20.8162L145.916 20.0769C145.655 19.938 145.361 19.8712 145.065 19.8835L145.061 19.8749ZM79.7027 28.7119L73.35 45.5479H76.694L77.8029 42.479H84.8347L85.9437 45.5479H89.2876L82.922 28.7119H79.7027ZM78.886 39.5305L81.3317 32.8425L83.7516 39.5305H78.886ZM95.9756 28.7119H90.5341V45.5479H96.0358C101.06 45.5479 104.753 41.9288 104.753 37.1321C104.753 32.3353 101.323 28.7119 95.9756 28.7119ZM95.8381 42.5048H93.805V31.7335H95.7435C99.4314 31.7335 101.464 34.0417 101.464 37.1321C101.464 40.1537 99.2508 42.5048 95.8381 42.5048ZM112.171 28.7119H106.721V45.5479H112.231C117.26 45.5479 120.965 41.9288 120.965 37.1192C120.965 32.3095 117.527 28.7119 112.163 28.7119H112.171ZM112.034 42.5048H110.005V31.7335H111.939C115.631 31.7335 117.66 34.0417 117.66 37.1321C117.651 40.1537 115.438 42.5048 112.025 42.5048H112.034ZM122.874 38.5032H131.406V35.7566H122.865L122.874 38.5032ZM141.683 28.4841C139.971 28.4833 138.298 28.9901 136.875 29.9404C135.452 30.8907 134.343 32.2418 133.689 33.8226C133.034 35.4035 132.863 37.1431 133.197 38.8213C133.531 40.4995 134.356 42.0408 135.566 43.2501C136.777 44.4595 138.319 45.2825 139.997 45.6151C141.676 45.9477 143.415 45.7748 144.996 45.1184C146.576 44.462 147.926 43.3516 148.875 41.9277C149.824 40.5037 150.329 38.8303 150.326 37.1192C150.331 35.983 150.111 34.8572 149.678 33.8066C149.246 32.7561 148.609 31.8018 147.805 30.9988C147.002 30.1958 146.047 29.5601 144.996 29.1285C143.945 28.6969 142.819 28.4779 141.683 28.4841ZM141.683 42.5736C140.6 42.5898 139.538 42.2837 138.63 41.6943C137.723 41.1049 137.011 40.2588 136.585 39.2637C136.16 38.2686 136.04 37.1694 136.241 36.106C136.443 35.0426 136.956 34.0631 137.715 33.2921C138.474 32.5211 139.446 31.9935 140.506 31.7763C141.567 31.5592 142.667 31.6623 143.669 32.0726C144.67 32.483 145.527 33.1819 146.13 34.0806C146.733 34.9792 147.055 36.0369 147.055 37.1192C147.068 37.8322 146.939 38.5407 146.675 39.203C146.41 39.8654 146.016 40.4683 145.516 40.9763C145.016 41.4844 144.419 41.8874 143.76 42.1617C143.102 42.4359 142.396 42.576 141.683 42.5736ZM163.126 40.1752L155.75 28.7119H152.265V45.5479H155.424V33.7193L163.036 45.5479H166.264V28.7119H163.126V40.1752ZM175.397 35.4472C173.296 34.9658 171.615 34.7122 171.615 33.3497C171.615 32.245 172.397 31.3424 174.22 31.3424C175.005 31.3032 175.787 31.478 176.481 31.8481C177.175 32.2183 177.756 32.7699 178.161 33.4442L180.813 31.3682C179.094 29.477 177.241 28.4411 174.267 28.4411C170.76 28.4411 168.293 30.6547 168.293 33.4184C168.293 36.8312 171.108 37.6393 173.618 38.1679C175.948 38.7009 177.564 39.0276 177.564 40.5921C177.564 41.8128 176.618 42.6896 174.796 42.6896C172.788 42.6896 171.293 41.7913 170.184 40.0376L167.347 42.2985C168.937 44.3272 171.151 45.737 174.774 45.737C178.531 45.737 180.955 43.3429 180.955 40.4589C180.955 36.8527 177.976 36.0231 175.397 35.4687V35.4472Z" fill="#5F6368"/>
<rect x="0.25" y="0.25" width="204.5" height="63.5" stroke="#DADCE0" stroke-width="0.5"/>
<defs>
<linearGradient id="paint0_linear_236_2597" x1="54.7738" y1="18.1995" x2="23.6662" y2="48.219" gradientUnits="userSpaceOnUse">
<stop offset="0.05" stop-color="#FFF44F"/>
<stop offset="0.37" stop-color="#FF980E"/>
<stop offset="0.53" stop-color="#FF3647"/>
<stop offset="0.7" stop-color="#E31587"/>
</linearGradient>
<radialGradient id="paint1_radial_236_2597" cx="0" cy="0" r="1" gradientUnits="userSpaceOnUse" gradientTransform="translate(48.0245 16.5147) scale(39.6383 40.2881)">
<stop offset="0.13" stop-color="#FFBD4F"/>
<stop offset="0.28" stop-color="#FF980E"/>
<stop offset="0.47" stop-color="#FF3750"/>
<stop offset="0.78" stop-color="#EB0878"/>
<stop offset="0.86" stop-color="#E50080"/>
</radialGradient>
<radialGradient id="paint2_radial_236_2597" cx="0" cy="0" r="1" gradientUnits="userSpaceOnUse" gradientTransform="translate(36.4805 33.1006) scale(40.6293 40.2881)">
<stop offset="0.3" stop-color="#960E18"/>
<stop offset="0.35" stop-color="#B11927" stop-opacity="0.74"/>
<stop offset="0.43" stop-color="#DB293D" stop-opacity="0.34"/>
<stop offset="0.5" stop-color="#F5334B" stop-opacity="0.09"/>
<stop offset="0.53" stop-color="#FF3750" stop-opacity="0"/>
</radialGradient>
<radialGradient id="paint3_radial_236_2597" cx="0" cy="0" r="1" gradientUnits="userSpaceOnUse" gradientTransform="translate(44.1794 10.1112) scale(13.0095 22.0885)">
<stop offset="0.13" stop-color="#FFF44F"/>
<stop offset="0.53" stop-color="#FF980E"/>
</radialGradient>
<radialGradient id="paint4_radial_236_2597" cx="0" cy="0" r="1" gradientUnits="userSpaceOnUse" gradientTransform="translate(35.5948 43.5122) scale(17.214 18.8695)">
<stop offset="0.35" stop-color="#3A8EE6"/>
<stop offset="0.67" stop-color="#9059FF"/>
<stop offset="1" stop-color="#C139E6"/>
</radialGradient>
<radialGradient id="paint5_radial_236_2597" cx="0" cy="0" r="1" gradientUnits="userSpaceOnUse" gradientTransform="translate(38.6004 28.9619) scale(9.14063 11.133)">
<stop offset="0.21" stop-color="#9059FF" stop-opacity="0"/>
<stop offset="0.97" stop-color="#6E008B" stop-opacity="0.6"/>
</radialGradient>
<radialGradient id="paint6_radial_236_2597" cx="0" cy="0" r="1" gradientUnits="userSpaceOnUse" gradientTransform="translate(39.0734 14.9729) scale(13.6851 13.7359)">
<stop offset="0.1" stop-color="#FFE226"/>
<stop offset="0.79" stop-color="#FF7139"/>
</radialGradient>
<radialGradient id="paint7_radial_236_2597" cx="0" cy="0" r="1" gradientUnits="userSpaceOnUse" gradientTransform="translate(51.5653 5.97452) scale(65.3192 54.8385)">
<stop offset="0.11" stop-color="#FFF44F"/>
<stop offset="0.46" stop-color="#FF980E"/>
<stop offset="0.72" stop-color="#FF3647"/>
<stop offset="0.9" stop-color="#E31587"/>
</radialGradient>
<radialGradient id="paint8_radial_236_2597" cx="0" cy="0" r="1" gradientUnits="userSpaceOnUse" gradientTransform="translate(27.8636 23.6685) rotate(77.3946) scale(20.7294 89.6842)">
<stop stop-color="#FFF44F"/>
<stop offset="0.3" stop-color="#FF980E"/>
<stop offset="0.57" stop-color="#FF3647"/>
<stop offset="0.74" stop-color="#E31587"/>
</radialGradient>
<radialGradient id="paint9_radial_236_2597" cx="0" cy="0" r="1" gradientUnits="userSpaceOnUse" gradientTransform="translate(39.2137 19.9401) scale(37.5165 36.8147)">
<stop offset="0.14" stop-color="#FFF44F"/>
<stop offset="0.48" stop-color="#FF980E"/>
<stop offset="0.66" stop-color="#FF3647"/>
<stop offset="0.9" stop-color="#E31587"/>
</radialGradient>
<radialGradient id="paint10_radial_236_2597" cx="0" cy="0" r="1" gradientUnits="userSpaceOnUse" gradientTransform="translate(48.952 22.0528) scale(45.088 40.3776)">
<stop offset="0.09" stop-color="#FFF44F"/>
<stop offset="0.63" stop-color="#FF980E"/>
</radialGradient>
<linearGradient id="paint11_linear_236_2597" x1="51.9674" y1="17.5997" x2="27.0934" y2="44.7883" gradientUnits="userSpaceOnUse">
<stop offset="0.17" stop-color="#FFF44F" stop-opacity="0.8"/>
<stop offset="0.6" stop-color="#FFF44F" stop-opacity="0"/>
</linearGradient>
</defs>
</svg>
