<svg width="178" height="60" viewBox="0 0 178 60" fill="none" xmlns="http://www.w3.org/2000/svg">
<rect x="0.25" y="-0.25" width="176.814" height="59.4836" transform="matrix(1 0 0 -1 0 59.4836)" fill="white"/>
<path d="M47.308 23.4135C46.466 21.3875 44.758 19.2 43.4205 18.5085C44.3745 20.356 45.0365 22.3402 45.383 24.3905L45.3865 24.423C43.1955 18.9605 39.48 16.758 36.4455 11.962C36.2888 11.7175 36.1366 11.4701 35.989 11.22C35.9129 11.0893 35.8417 10.9559 35.7755 10.82C35.6496 10.5762 35.5527 10.3187 35.4865 10.0525C35.4866 10.0402 35.4821 10.0283 35.474 10.0191C35.4659 10.0098 35.4547 10.0039 35.4425 10.0025C35.4306 9.99918 35.4179 9.99918 35.406 10.0025C35.4035 10.0025 35.3995 10.007 35.3965 10.008C35.3935 10.009 35.387 10.0135 35.3825 10.0155L35.39 10.0025C30.5225 12.8525 28.871 18.1285 28.719 20.7675C26.7751 20.9011 24.9167 21.6174 23.386 22.823C23.2263 22.6877 23.0594 22.5612 22.886 22.444C22.4444 20.8984 22.4256 19.2627 22.8315 17.7075C21.044 18.5734 19.4556 19.801 18.167 21.3125H18.158C17.39 20.339 17.444 17.129 17.488 16.4585C17.2608 16.5498 17.0439 16.6649 16.841 16.802C16.163 17.2858 15.5292 17.8288 14.947 18.4245C14.2836 19.0971 13.6776 19.8242 13.1355 20.598V20.601V20.5975C11.8896 22.3637 11.0059 24.3593 10.5355 26.469L10.5095 26.597C10.438 26.999 10.3745 27.4024 10.319 27.807C10.319 27.8215 10.316 27.835 10.3145 27.8495C10.1449 28.7311 10.0398 29.624 10 30.521V30.621C10.0042 35.4731 11.8285 40.1471 15.1123 43.7193C18.396 47.2914 22.9003 49.5018 27.7349 49.9136C32.5696 50.3253 37.3828 48.9085 41.2233 45.9431C45.0639 42.9777 47.6523 38.6795 48.477 33.898C48.5095 33.648 48.536 33.4005 48.565 33.148C48.9641 29.8491 48.532 26.5027 47.308 23.4135V23.4135ZM24.973 38.5825C25.0635 38.626 25.1485 38.673 25.2415 38.7145L25.255 38.723C25.161 38.678 25.067 38.6311 24.973 38.5825V38.5825ZM45.388 24.4275V24.409L45.3915 24.4295L45.388 24.4275Z" fill="url(#paint0_linear_117_433)"/>
<path d="M47.308 23.4135C46.466 21.3875 44.758 19.2 43.4205 18.5085C44.3745 20.356 45.0365 22.3402 45.383 24.3905V24.409L45.3865 24.4295C46.8801 28.7037 46.6641 33.3898 44.7835 37.5085C42.5625 42.274 37.1865 47.1585 28.7715 46.921C19.679 46.6635 11.6715 39.9165 10.1745 31.0795C9.902 29.686 10.1745 28.9795 10.3115 27.847C10.1246 28.7267 10.0203 29.6219 10 30.521V30.621C10.0042 35.4731 11.8285 40.1472 15.1123 43.7193C18.396 47.2915 22.9003 49.5019 27.7349 49.9136C32.5696 50.3254 37.3828 48.9085 41.2233 45.9431C45.0639 42.9777 47.6523 38.6795 48.477 33.898C48.5095 33.648 48.536 33.4005 48.565 33.148C48.9641 29.8491 48.532 26.5028 47.308 23.4135V23.4135Z" fill="url(#paint1_radial_117_433)"/>
<path d="M47.308 23.4135C46.466 21.3875 44.758 19.2 43.4205 18.5085C44.3745 20.356 45.0365 22.3402 45.383 24.3905V24.409L45.3865 24.4295C46.8801 28.7037 46.6641 33.3898 44.7835 37.5085C42.5625 42.274 37.1865 47.1585 28.7715 46.921C19.679 46.6635 11.6715 39.9165 10.1745 31.0795C9.902 29.686 10.1745 28.9795 10.3115 27.847C10.1246 28.7267 10.0203 29.6219 10 30.521V30.621C10.0042 35.4731 11.8285 40.1472 15.1123 43.7193C18.396 47.2915 22.9003 49.5019 27.7349 49.9136C32.5696 50.3254 37.3828 48.9085 41.2233 45.9431C45.0639 42.9777 47.6523 38.6795 48.477 33.898C48.5095 33.648 48.536 33.4005 48.565 33.148C48.9641 29.8491 48.532 26.5028 47.308 23.4135V23.4135Z" fill="url(#paint2_radial_117_433)"/>
<path d="M37.891 25.6915C37.933 25.721 37.972 25.7505 38.0115 25.78C37.5247 24.9169 36.9188 24.1266 36.2115 23.4325C30.1885 17.4085 34.633 10.371 35.3825 10.0135L35.39 10.0025C30.5225 12.8525 28.871 18.1285 28.719 20.7675C28.945 20.752 29.169 20.733 29.4 20.733C31.1271 20.7362 32.8225 21.1966 34.314 22.0676C35.8054 22.9385 37.0395 24.1889 37.891 25.6915V25.6915Z" fill="url(#paint3_radial_117_433)"/>
<path d="M29.4124 26.8944C29.3804 27.3764 27.6774 29.0389 27.0819 29.0389C21.5714 29.0389 20.6769 32.3724 20.6769 32.3724C20.9209 35.1794 22.8769 37.4914 25.2414 38.7144C25.349 38.7694 25.4581 38.8214 25.5684 38.8704C25.7581 38.9544 25.9478 39.0321 26.1374 39.1034C26.9489 39.3906 27.7989 39.5546 28.6589 39.5899C38.3174 40.0429 40.1884 28.0399 33.2184 24.5569C34.8627 24.343 36.5279 24.7473 37.8909 25.6914C37.0395 24.1888 35.8053 22.9385 34.3139 22.0675C32.8225 21.1966 31.127 20.7361 29.3999 20.7329C29.1699 20.7329 28.9449 20.7519 28.7189 20.7674C26.7751 20.9011 24.9166 21.6174 23.3859 22.8229C23.6814 23.0729 24.0149 23.4069 24.7174 24.0994C26.0324 25.3949 29.4049 26.7369 29.4124 26.8944Z" fill="url(#paint4_radial_117_433)"/>
<path d="M29.4124 26.8944C29.3804 27.3764 27.6774 29.0389 27.0819 29.0389C21.5714 29.0389 20.6769 32.3724 20.6769 32.3724C20.9209 35.1794 22.8769 37.4914 25.2414 38.7144C25.349 38.7694 25.4581 38.8214 25.5684 38.8704C25.7581 38.9544 25.9478 39.0321 26.1374 39.1034C26.9489 39.3906 27.7989 39.5546 28.6589 39.5899C38.3174 40.0429 40.1884 28.0399 33.2184 24.5569C34.8627 24.343 36.5279 24.7473 37.8909 25.6914C37.0395 24.1888 35.8053 22.9385 34.3139 22.0675C32.8225 21.1966 31.127 20.7361 29.3999 20.7329C29.1699 20.7329 28.9449 20.7519 28.7189 20.7674C26.7751 20.9011 24.9166 21.6174 23.3859 22.8229C23.6814 23.0729 24.0149 23.4069 24.7174 24.0994C26.0324 25.3949 29.4049 26.7369 29.4124 26.8944Z" fill="url(#paint5_radial_117_433)"/>
<path d="M22.4825 22.1784C22.6175 22.2643 22.7508 22.3528 22.8825 22.4439C22.4409 20.8984 22.4221 19.2627 22.828 17.7074C21.0404 18.5734 19.4521 19.8009 18.1635 21.3124C18.258 21.3099 21.069 21.2594 22.4825 22.1784V22.1784Z" fill="url(#paint6_radial_117_433)"/>
<path d="M10.177 31.0795C11.6725 39.9165 19.6815 46.6635 28.774 46.921C37.189 47.159 42.565 42.274 44.786 37.5085C46.6665 33.3898 46.8826 28.7037 45.389 24.4295V24.411C45.389 24.3965 45.386 24.388 45.389 24.3925L45.3925 24.425C46.08 28.9135 43.797 33.262 40.228 36.2025L40.217 36.2275C33.263 41.891 26.608 39.6445 25.261 38.7275C25.167 38.6825 25.073 38.6356 24.979 38.587C20.9245 36.649 19.2495 32.955 19.6085 29.787C18.646 29.8012 17.7001 29.536 16.8853 29.0235C16.0706 28.511 15.4219 27.7732 15.018 26.8995C16.0823 26.2474 17.2958 25.8788 18.543 25.8288C19.7901 25.7787 21.0293 26.0489 22.1425 26.6135C24.4374 27.6553 27.0488 27.7579 29.4185 26.8995C29.411 26.742 26.0385 25.3995 24.7235 24.1045C24.021 23.412 23.6875 23.0785 23.392 22.828C23.2323 22.6927 23.0653 22.5662 22.892 22.449C22.7594 22.3593 22.6261 22.2708 22.492 22.1835C21.0785 21.2645 18.2675 21.315 18.1745 21.3175H18.1655C17.3975 20.344 17.4515 17.134 17.4955 16.4635C17.2683 16.5548 17.0514 16.6699 16.8485 16.807C16.1705 17.2909 15.5367 17.8338 14.9545 18.4295C14.2886 19.1002 13.6802 19.8256 13.1355 20.598V20.601V20.5975C11.8896 22.3637 11.0059 24.3593 10.5355 26.469C10.526 26.5085 9.83746 29.5185 10.177 31.0795V31.0795Z" fill="url(#paint7_radial_117_433)"/>
<path d="M36.2124 23.4325C36.9199 24.1273 37.5259 24.9184 38.0124 25.7825C38.1129 25.8572 38.2099 25.9367 38.3029 26.0205C42.6964 30.0705 40.3944 35.7955 40.2229 36.203C43.7919 33.2625 46.0729 28.914 45.3874 24.4255C43.1954 18.9605 39.4799 16.758 36.4454 11.962C36.2887 11.7175 36.1365 11.4701 35.9889 11.22C35.9129 11.0893 35.8416 10.9559 35.7754 10.82C35.6496 10.5762 35.5526 10.3187 35.4864 10.0525C35.4865 10.0402 35.4821 10.0283 35.474 10.0191C35.4659 10.0098 35.4546 10.0039 35.4424 10.0025C35.4305 9.99918 35.4179 9.99918 35.4059 10.0025C35.4034 10.0025 35.3994 10.007 35.3964 10.008C35.3934 10.009 35.3869 10.0135 35.3824 10.0155C34.6329 10.371 30.1884 17.4085 36.2124 23.4325Z" fill="url(#paint8_radial_117_433)"/>
<path d="M38.2999 26.018C38.2068 25.9342 38.1099 25.8548 38.0094 25.78C37.9699 25.7505 37.9309 25.721 37.8889 25.6915C36.5259 24.7473 34.8607 24.343 33.2164 24.557C40.1864 28.042 38.3164 40.043 28.6569 39.59C27.7969 39.5547 26.9469 39.3907 26.1354 39.1035C25.9458 39.0325 25.7561 38.9548 25.5664 38.8705C25.4562 38.8212 25.3471 38.7692 25.2394 38.7145L25.2529 38.723C26.5999 39.6425 33.2529 41.889 40.2089 36.223L40.2199 36.198C40.3934 35.793 42.6954 30.0665 38.2999 26.018V26.018Z" fill="url(#paint9_radial_117_433)"/>
<path d="M20.677 32.3725C20.677 32.3725 21.5715 29.039 27.082 29.039C27.6775 29.039 29.382 27.3765 29.4125 26.8945C27.0428 27.7529 24.4314 27.6503 22.1365 26.6085C21.0233 26.0438 19.7841 25.7737 18.537 25.8238C17.2898 25.8738 16.0763 26.2424 15.012 26.8945C15.4159 27.7681 16.0646 28.5059 16.8793 29.0184C17.6941 29.5309 18.64 29.7962 19.6025 29.782C19.2435 32.9505 20.9185 36.6445 24.973 38.582C25.0635 38.6255 25.1485 38.6725 25.2415 38.714C22.875 37.4915 20.921 35.1795 20.677 32.3725V32.3725Z" fill="url(#paint10_radial_117_433)"/>
<path d="M47.308 23.4135C46.466 21.3875 44.758 19.2 43.4205 18.5085C44.3745 20.356 45.0365 22.3402 45.383 24.3905L45.3865 24.423C43.1955 18.9605 39.48 16.758 36.4455 11.962C36.2888 11.7175 36.1366 11.4701 35.989 11.22C35.9129 11.0893 35.8417 10.9559 35.7755 10.82C35.6496 10.5762 35.5527 10.3187 35.4865 10.0525C35.4866 10.0402 35.4821 10.0283 35.474 10.0191C35.4659 10.0098 35.4547 10.0039 35.4425 10.0025C35.4306 9.99918 35.4179 9.99918 35.406 10.0025C35.4035 10.0025 35.3995 10.007 35.3965 10.008C35.3935 10.009 35.387 10.0135 35.3825 10.0155L35.39 10.0025C30.5225 12.8525 28.871 18.1285 28.719 20.7675C28.945 20.752 29.169 20.733 29.4 20.733C31.1271 20.7361 32.8225 21.1966 34.314 22.0675C35.8054 22.9385 37.0395 24.1888 37.891 25.6915C36.5279 24.7473 34.8628 24.343 33.2185 24.557C40.1885 28.042 38.3185 40.043 28.659 39.59C27.7989 39.5546 26.949 39.3906 26.1375 39.1035C25.9478 39.0325 25.7582 38.9548 25.5685 38.8705C25.4582 38.8212 25.3492 38.7692 25.2415 38.7145L25.255 38.723C25.161 38.678 25.067 38.6311 24.973 38.5825C25.0635 38.626 25.1485 38.673 25.2415 38.7145C22.875 37.4915 20.921 35.1795 20.677 32.3725C20.677 32.3725 21.5715 29.039 27.082 29.039C27.6775 29.039 29.382 27.3765 29.4125 26.8945C29.405 26.737 26.0325 25.3945 24.7175 24.0995C24.015 23.407 23.6815 23.0735 23.386 22.823C23.2263 22.6877 23.0594 22.5612 22.886 22.444C22.4444 20.8984 22.4256 19.2627 22.8315 17.7075C21.044 18.5734 19.4556 19.801 18.167 21.3125H18.158C17.39 20.339 17.444 17.129 17.488 16.4585C17.2608 16.5498 17.0439 16.6649 16.841 16.802C16.163 17.2858 15.5292 17.8288 14.947 18.4245C14.2836 19.0971 13.6776 19.8242 13.1355 20.598V20.601V20.5975C11.8896 22.3637 11.0059 24.3593 10.5355 26.469L10.5095 26.597C10.473 26.7675 10.3095 27.6335 10.286 27.8195C10.286 27.8335 10.286 27.805 10.286 27.8195C10.1365 28.7134 10.0409 29.6155 10 30.521V30.621C10.0042 35.4731 11.8285 40.1471 15.1123 43.7193C18.396 47.2914 22.9003 49.5018 27.7349 49.9136C32.5696 50.3253 37.3828 48.9085 41.2233 45.9431C45.0639 42.9777 47.6523 38.6795 48.477 33.898C48.5095 33.648 48.536 33.4005 48.565 33.148C48.9641 29.8491 48.532 26.5027 47.308 23.4135V23.4135ZM45.3855 24.409L45.389 24.4295L45.3855 24.409Z" fill="url(#paint11_linear_117_433)"/>
<path d="M60.5045 16.4183H65.1293V17.6733H61.8283V19.3668H65.1293V20.609H61.8283V23.3512H60.5045V16.4183ZM66.7024 15.9369C66.8048 15.9338 66.9068 15.9519 67.0018 15.9901C67.0969 16.0283 67.1831 16.0857 67.2549 16.1587C67.3267 16.2318 67.3827 16.3189 67.4193 16.4146C67.4559 16.5103 67.4723 16.6125 67.4675 16.7149C67.453 16.9095 67.3654 17.0915 67.2223 17.2243C67.0792 17.3571 66.8912 17.4309 66.696 17.4309C66.5008 17.4309 66.3128 17.3571 66.1697 17.2243C66.0266 17.0915 65.939 16.9095 65.9245 16.7149C65.9233 16.6124 65.9426 16.5107 65.9813 16.4158C66.02 16.3209 66.0773 16.2346 66.1498 16.1622C66.2222 16.0897 66.3085 16.0324 66.4034 15.9938C66.4983 15.9551 66.5999 15.9357 66.7024 15.9369V15.9369ZM66.062 18.2192H67.3515V23.3512H66.062V18.2192ZM71.1597 19.6419C70.9784 19.4982 70.7548 19.4181 70.5235 19.4141C69.9948 19.4141 69.6897 19.758 69.6897 20.5058V23.3512H68.4002V18.2192H69.6424V18.9585C69.7378 18.722 69.9046 18.5212 70.1196 18.3841C70.3345 18.2469 70.5869 18.1803 70.8416 18.1934C71.1483 18.1946 71.4476 18.2874 71.7012 18.4599L71.1597 19.6419ZM71.7012 20.8067C71.6914 20.4554 71.7524 20.1057 71.8807 19.7785C72.0089 19.4513 72.2017 19.1533 72.4476 18.9022C72.6934 18.6511 72.9874 18.4521 73.3118 18.317C73.6363 18.182 73.9846 18.1136 74.336 18.1161C74.6833 18.1016 75.0298 18.1591 75.3538 18.2849C75.6778 18.4107 75.9723 18.6021 76.2189 18.847C76.4655 19.092 76.6588 19.3852 76.7867 19.7084C76.9146 20.0316 76.9743 20.3777 76.9622 20.7251V21.2623H72.9778C73.0419 21.5831 73.221 21.8693 73.4815 22.0673C73.7419 22.2652 74.0657 22.361 74.3919 22.3369C74.6574 22.3487 74.9207 22.2831 75.1496 22.148C75.3785 22.0129 75.5633 21.8142 75.6813 21.5761L76.7731 22.2294C76.5158 22.6254 76.1585 22.9463 75.7374 23.1599C75.3162 23.3735 74.8462 23.4721 74.3747 23.4458C74.0188 23.4742 73.6609 23.4258 73.3253 23.3039C72.9897 23.1819 72.6842 22.9893 72.4295 22.7391C72.1747 22.4889 71.9767 22.1868 71.8489 21.8535C71.721 21.5201 71.6663 21.1631 71.6883 20.8067H71.7012ZM72.9907 20.2308H75.6813C75.6157 19.9253 75.4413 19.6541 75.1907 19.4675C74.9401 19.2809 74.6303 19.1917 74.3188 19.2164C74.0135 19.2044 73.7134 19.299 73.4703 19.4841C73.2272 19.6692 73.056 19.9332 72.9864 20.2308H72.9907ZM77.2889 18.2192H78.2044V17.9656C78.2044 16.573 78.7932 15.9928 80.0827 15.9928H80.5383V17.1232H80.1686C79.5626 17.1232 79.4294 17.3295 79.4294 17.9828V18.2364H80.5383V19.3969H79.4594V23.3512H78.2044V19.3969H77.2889V18.2192ZM80.7833 20.7981C80.7774 20.4458 80.8427 20.096 80.9751 19.7694C81.1074 19.4429 81.3043 19.1464 81.5538 18.8977C81.8034 18.6489 82.1005 18.4531 82.4275 18.3217C82.7544 18.1904 83.1045 18.1263 83.4568 18.1333C83.8067 18.1333 84.1532 18.2022 84.4766 18.3361C84.7999 18.47 85.0937 18.6663 85.3411 18.9138C85.5886 19.1612 85.7849 19.455 85.9188 19.7783C86.0527 20.1016 86.1216 20.4482 86.1216 20.7981C86.1216 21.1481 86.0527 21.4946 85.9188 21.8179C85.7849 22.1412 85.5886 22.435 85.3411 22.6825C85.0937 22.9299 84.7999 23.1262 84.4766 23.2601C84.1532 23.3941 83.8067 23.463 83.4568 23.463C83.0992 23.4789 82.7422 23.4201 82.4086 23.2905C82.075 23.1609 81.772 22.9633 81.5189 22.7102C81.2658 22.4571 81.0682 22.1541 80.9386 21.8205C80.809 21.4869 80.7502 21.1299 80.7661 20.7723L80.7833 20.7981ZM84.8623 20.7981C84.8728 20.6073 84.8444 20.4163 84.7786 20.2369C84.7129 20.0574 84.6112 19.8933 84.4799 19.7544C84.3485 19.6156 84.1902 19.505 84.0147 19.4295C83.8391 19.3539 83.65 19.3149 83.4589 19.3149C83.2678 19.3149 83.0787 19.3539 82.9031 19.4295C82.7276 19.505 82.5693 19.6156 82.438 19.7544C82.3066 19.8933 82.2049 20.0574 82.1392 20.2369C82.0734 20.4163 82.045 20.6073 82.0556 20.7981C82.045 20.989 82.0734 21.1799 82.1392 21.3594C82.2049 21.5388 82.3066 21.703 82.438 21.8418C82.5693 21.9806 82.7276 22.0912 82.9031 22.1668C83.0787 22.2424 83.2678 22.2813 83.4589 22.2813C83.65 22.2813 83.8391 22.2424 84.0147 22.1668C84.1902 22.0912 84.3485 21.9806 84.4799 21.8418C84.6112 21.703 84.7129 21.5388 84.7786 21.3594C84.8444 21.1799 84.8728 20.989 84.8623 20.7981V20.7981ZM87.8925 20.7423L86.0443 18.2364H87.5529L88.6447 19.8138L89.7622 18.2364H91.2709L89.3925 20.7294L91.374 23.3512H89.8482L88.6232 21.6836L87.4412 23.3512H85.9153L87.8925 20.7423ZM98.9388 19.7666C99.2217 19.6334 99.4595 19.4205 99.6229 19.154C99.7863 18.8875 99.8683 18.579 99.8586 18.2665C99.8586 17.1447 98.999 16.4226 97.7095 16.4226H94.7438V23.3512H97.8041C99.0936 23.3512 99.9962 22.6077 99.9962 21.3956C100.012 21.0476 99.9187 20.7034 99.7291 20.4113C99.5394 20.1191 99.2631 19.8937 98.9388 19.7666V19.7666ZM95.539 17.1447H97.688C98.5477 17.1447 99.0549 17.6003 99.0549 18.2665C99.0549 18.9327 98.5993 19.4227 97.7654 19.4227H95.5347L95.539 17.1447ZM97.7955 22.6249H95.539V20.1534H97.7611C98.7067 20.1534 99.201 20.6563 99.201 21.3913C99.201 22.1263 98.6508 22.6249 97.7955 22.6249V22.6249ZM101.69 19.1863V18.2278H100.942V23.3512H101.711V20.5445C101.711 19.4141 102.201 18.9198 103.056 18.9198C103.277 18.9116 103.495 18.9684 103.684 19.0832L104.006 18.3439C103.742 18.2031 103.445 18.1363 103.147 18.1504C102.821 18.1302 102.498 18.223 102.232 18.4133C101.967 18.6036 101.775 18.8797 101.69 19.1949V19.1863ZM106.701 18.1161C106.351 18.1126 106.003 18.1792 105.679 18.312C105.354 18.4448 105.06 18.6411 104.812 18.8894C104.565 19.1377 104.369 19.4329 104.238 19.7577C104.106 20.0825 104.04 20.4304 104.045 20.7809C104.037 21.1324 104.101 21.4819 104.232 21.8083C104.362 22.1347 104.557 22.4314 104.805 22.6806C105.053 22.9298 105.349 23.1264 105.675 23.2586C106.001 23.3908 106.35 23.456 106.701 23.4501C107.061 23.4645 107.419 23.4062 107.755 23.2787C108.091 23.1512 108.398 22.957 108.658 22.708C108.917 22.4589 109.123 22.16 109.264 21.8292C109.405 21.4984 109.478 21.1426 109.478 20.7831C109.478 20.4235 109.405 20.0677 109.264 19.7369C109.123 19.4062 108.917 19.1073 108.658 18.8582C108.398 18.6091 108.091 18.415 107.755 18.2875C107.419 18.1599 107.061 18.1016 106.701 18.1161V18.1161ZM106.701 22.7108C106.449 22.7128 106.2 22.6635 105.967 22.5659C105.735 22.4683 105.525 22.3245 105.35 22.1431C105.175 21.9618 105.039 21.7467 104.95 21.511C104.861 21.2754 104.821 21.0241 104.832 20.7723C104.819 20.5184 104.859 20.2646 104.948 20.0264C105.037 19.7882 105.173 19.5705 105.348 19.3865C105.524 19.2025 105.735 19.056 105.968 18.9559C106.202 18.8558 106.454 18.8042 106.708 18.8042C106.962 18.8042 107.214 18.8558 107.447 18.9559C107.681 19.056 107.892 19.2025 108.067 19.3865C108.243 19.5705 108.379 19.7882 108.468 20.0264C108.557 20.2646 108.596 20.5184 108.584 20.7723C108.594 21.0254 108.553 21.2779 108.463 21.5147C108.373 21.7514 108.236 21.9673 108.06 22.1494C107.884 22.3315 107.673 22.4759 107.439 22.5739C107.206 22.6719 106.955 22.7214 106.701 22.7194V22.7108ZM115.616 22.2552L114.09 18.2192H113.368L111.799 22.281L110.51 18.2192H109.693L111.373 23.3512H112.134L113.707 19.2852L115.285 23.3512H115.985L117.765 18.2235H116.957L115.616 22.2552ZM120.507 20.3855C119.708 20.2222 119.093 20.119 119.093 19.586C119.093 19.0531 119.415 18.7694 120.202 18.7694C120.477 18.762 120.75 18.8235 120.995 18.948C121.241 19.0726 121.451 19.2565 121.607 19.4829L122.252 19.0531C122.011 18.7476 121.701 18.5036 121.348 18.3407C120.995 18.1779 120.608 18.1009 120.219 18.1161C119.007 18.1161 118.311 18.8081 118.311 19.6032C118.311 20.6305 119.252 20.8669 120.133 21.0388C120.885 21.1893 121.586 21.3053 121.586 21.8727C121.586 22.44 121.156 22.7667 120.374 22.7667C120.049 22.7801 119.727 22.71 119.437 22.5633C119.148 22.4166 118.9 22.198 118.719 21.9285L118.044 22.3842C118.305 22.7452 118.655 23.0334 119.059 23.2215C119.463 23.4096 119.908 23.4912 120.352 23.4587C121.693 23.4587 122.377 22.6721 122.377 21.8641C122.368 20.811 121.388 20.5617 120.507 20.3941V20.3855ZM125.665 18.1161C125.311 18.1102 124.96 18.1758 124.632 18.3089C124.304 18.442 124.006 18.6398 123.757 18.8906C123.507 19.1414 123.311 19.44 123.179 19.7685C123.048 20.097 122.984 20.4487 122.991 20.8024C122.982 21.1576 123.045 21.511 123.178 21.8404C123.311 22.1698 123.511 22.4682 123.765 22.7168C124.019 22.9654 124.321 23.1588 124.653 23.285C124.986 23.4112 125.34 23.4674 125.695 23.4501C126.172 23.4717 126.645 23.3631 127.065 23.136C127.484 22.9088 127.834 22.5716 128.076 22.1607L127.414 21.7738C127.253 22.086 127.004 22.3451 126.7 22.5203C126.395 22.6956 126.046 22.7796 125.695 22.7624C125.218 22.7879 124.749 22.6284 124.386 22.3169C124.023 22.0055 123.795 21.5662 123.748 21.0904H128.278V20.738C128.29 20.3921 128.23 20.0475 128.103 19.7256C127.976 19.4037 127.784 19.1113 127.54 18.8664C127.295 18.6215 127.003 18.4293 126.681 18.3017C126.36 18.1742 126.015 18.1139 125.669 18.1247L125.665 18.1161ZM123.769 20.3941C123.845 19.9475 124.077 19.5424 124.425 19.2518C124.772 18.9611 125.212 18.8038 125.665 18.8081C126.115 18.782 126.557 18.9336 126.896 19.2302C127.235 19.5268 127.445 19.9448 127.479 20.3941H123.769ZM131.42 18.1418C131.093 18.1205 130.769 18.2129 130.503 18.4033C130.237 18.5936 130.044 18.8703 129.959 19.1863V18.2278H129.207V23.3512H129.976V20.5445C129.976 19.4141 130.47 18.9198 131.326 18.9198C131.546 18.9116 131.765 18.9684 131.953 19.0832L132.276 18.3439C132.014 18.205 131.72 18.1382 131.424 18.1504L131.42 18.1418ZM66.062 26.9789L59.7093 43.8149H63.0533L64.1622 40.746H71.194L72.303 43.8149H75.647L69.2813 26.9789H66.062ZM65.2453 37.7974L67.691 31.1095L70.1109 37.7974H65.2453ZM82.3349 26.9789H76.8934V43.8149H82.3951C87.4197 43.8149 91.1118 40.1958 91.1118 35.3991C91.1118 30.6023 87.6819 26.9789 82.3349 26.9789V26.9789ZM82.1974 40.7718H80.1643V30.0005H82.1028C85.7907 30.0005 87.8237 32.3087 87.8237 35.3991C87.8237 38.4207 85.6101 40.7718 82.1974 40.7718ZM98.5305 26.9789H93.0804V43.8149H98.5907C103.62 43.8149 107.325 40.1958 107.325 35.3862C107.325 30.5765 103.886 26.9789 98.5219 26.9789H98.5305ZM98.3929 40.7718H96.3642V30.0005H98.2984C101.991 30.0005 104.019 32.3087 104.019 35.3991C104.011 38.4207 101.797 40.7718 98.3843 40.7718H98.3929ZM109.233 36.7702H117.765V34.0236H109.224L109.233 36.7702ZM128.042 26.7511C126.331 26.7503 124.658 27.2571 123.235 28.2074C121.812 29.1577 120.703 30.5088 120.048 32.0896C119.393 33.6705 119.222 35.4101 119.556 37.0883C119.89 38.7665 120.715 40.3078 121.926 41.5171C123.136 42.7265 124.678 43.5495 126.357 43.8821C128.035 44.2147 129.775 44.0418 131.355 43.3854C132.935 42.729 134.285 41.6186 135.234 40.1947C136.183 38.7707 136.688 37.0973 136.685 35.3862C136.691 34.25 136.47 33.1242 136.038 32.0736C135.605 31.0231 134.968 30.0687 134.165 29.2658C133.361 28.4628 132.406 27.8271 131.355 27.3955C130.304 26.9639 129.178 26.7449 128.042 26.7511V26.7511ZM128.042 40.8406C126.96 40.8568 125.897 40.5507 124.99 39.9613C124.082 39.3719 123.37 38.5258 122.945 37.5307C122.519 36.5356 122.4 35.4364 122.601 34.373C122.802 33.3096 123.315 32.3301 124.074 31.5591C124.834 30.7881 125.805 30.2605 126.866 30.0433C127.926 29.8262 129.027 29.9293 130.028 30.3396C131.03 30.7499 131.886 31.4489 132.489 32.3475C133.092 33.2462 133.414 34.3039 133.415 35.3862C133.428 36.0992 133.298 36.8077 133.034 37.47C132.77 38.1324 132.376 38.7353 131.875 39.2433C131.375 39.7514 130.778 40.1544 130.12 40.4286C129.461 40.7029 128.755 40.843 128.042 40.8406ZM149.485 38.4422L142.11 26.9789H138.624V43.8149H141.783V31.9863L149.395 43.8149H152.623V26.9789H149.485V38.4422ZM161.757 33.7142C159.655 33.2328 157.974 32.9792 157.974 31.6167C157.974 30.512 158.757 29.6094 160.579 29.6094C161.365 29.5702 162.146 29.7449 162.841 30.1151C163.535 30.4853 164.115 31.0369 164.521 31.7112L167.172 29.6352C165.453 27.744 163.601 26.7081 160.626 26.7081C157.119 26.7081 154.652 28.9217 154.652 31.6854C154.652 35.0982 157.467 35.9062 159.977 36.4349C162.307 36.9679 163.923 37.2946 163.923 38.8591C163.923 40.0798 162.977 40.9566 161.155 40.9566C159.148 40.9566 157.652 40.0583 156.543 38.3046L153.706 40.5655C155.297 42.5942 157.51 44.004 161.134 44.004C164.89 44.004 167.314 41.6099 167.314 38.7259C167.314 35.1197 164.336 34.2901 161.757 33.7357V33.7142Z" fill="#5F6368"/>
<rect x="0.25" y="-0.25" width="176.814" height="59.4836" transform="matrix(1 0 0 -1 0 59.4836)" stroke="#DADCE0" stroke-width="0.5"/>
<defs>
<linearGradient id="paint0_linear_117_433" x1="43.7738" y1="16.1974" x2="12.6662" y2="46.217" gradientUnits="userSpaceOnUse">
<stop offset="0.05" stop-color="#FFF44F"/>
<stop offset="0.37" stop-color="#FF980E"/>
<stop offset="0.53" stop-color="#FF3647"/>
<stop offset="0.7" stop-color="#E31587"/>
</linearGradient>
<radialGradient id="paint1_radial_117_433" cx="0" cy="0" r="1" gradientUnits="userSpaceOnUse" gradientTransform="translate(37.0245 14.5127) scale(39.6383 40.2881)">
<stop offset="0.13" stop-color="#FFBD4F"/>
<stop offset="0.28" stop-color="#FF980E"/>
<stop offset="0.47" stop-color="#FF3750"/>
<stop offset="0.78" stop-color="#EB0878"/>
<stop offset="0.86" stop-color="#E50080"/>
</radialGradient>
<radialGradient id="paint2_radial_117_433" cx="0" cy="0" r="1" gradientUnits="userSpaceOnUse" gradientTransform="translate(25.4805 31.0985) scale(40.6293 40.2881)">
<stop offset="0.3" stop-color="#960E18"/>
<stop offset="0.35" stop-color="#B11927" stop-opacity="0.74"/>
<stop offset="0.43" stop-color="#DB293D" stop-opacity="0.34"/>
<stop offset="0.5" stop-color="#F5334B" stop-opacity="0.09"/>
<stop offset="0.53" stop-color="#FF3750" stop-opacity="0"/>
</radialGradient>
<radialGradient id="paint3_radial_117_433" cx="0" cy="0" r="1" gradientUnits="userSpaceOnUse" gradientTransform="translate(33.1794 8.1092) scale(13.0095 22.0885)">
<stop offset="0.13" stop-color="#FFF44F"/>
<stop offset="0.53" stop-color="#FF980E"/>
</radialGradient>
<radialGradient id="paint4_radial_117_433" cx="0" cy="0" r="1" gradientUnits="userSpaceOnUse" gradientTransform="translate(24.5948 41.5101) scale(17.214 18.8695)">
<stop offset="0.35" stop-color="#3A8EE6"/>
<stop offset="0.67" stop-color="#9059FF"/>
<stop offset="1" stop-color="#C139E6"/>
</radialGradient>
<radialGradient id="paint5_radial_117_433" cx="0" cy="0" r="1" gradientUnits="userSpaceOnUse" gradientTransform="translate(27.6004 26.9599) scale(9.14063 11.133)">
<stop offset="0.21" stop-color="#9059FF" stop-opacity="0"/>
<stop offset="0.97" stop-color="#6E008B" stop-opacity="0.6"/>
</radialGradient>
<radialGradient id="paint6_radial_117_433" cx="0" cy="0" r="1" gradientUnits="userSpaceOnUse" gradientTransform="translate(28.0734 12.9709) scale(13.6851 13.7359)">
<stop offset="0.1" stop-color="#FFE226"/>
<stop offset="0.79" stop-color="#FF7139"/>
</radialGradient>
<radialGradient id="paint7_radial_117_433" cx="0" cy="0" r="1" gradientUnits="userSpaceOnUse" gradientTransform="translate(40.5653 3.97247) scale(65.3192 54.8385)">
<stop offset="0.11" stop-color="#FFF44F"/>
<stop offset="0.46" stop-color="#FF980E"/>
<stop offset="0.72" stop-color="#FF3647"/>
<stop offset="0.9" stop-color="#E31587"/>
</radialGradient>
<radialGradient id="paint8_radial_117_433" cx="0" cy="0" r="1" gradientUnits="userSpaceOnUse" gradientTransform="translate(16.8636 21.6665) rotate(77.3946) scale(20.7294 89.6842)">
<stop stop-color="#FFF44F"/>
<stop offset="0.3" stop-color="#FF980E"/>
<stop offset="0.57" stop-color="#FF3647"/>
<stop offset="0.74" stop-color="#E31587"/>
</radialGradient>
<radialGradient id="paint9_radial_117_433" cx="0" cy="0" r="1" gradientUnits="userSpaceOnUse" gradientTransform="translate(28.2137 17.938) scale(37.5165 36.8147)">
<stop offset="0.14" stop-color="#FFF44F"/>
<stop offset="0.48" stop-color="#FF980E"/>
<stop offset="0.66" stop-color="#FF3647"/>
<stop offset="0.9" stop-color="#E31587"/>
</radialGradient>
<radialGradient id="paint10_radial_117_433" cx="0" cy="0" r="1" gradientUnits="userSpaceOnUse" gradientTransform="translate(37.952 20.0507) scale(45.088 40.3776)">
<stop offset="0.09" stop-color="#FFF44F"/>
<stop offset="0.63" stop-color="#FF980E"/>
</radialGradient>
<linearGradient id="paint11_linear_117_433" x1="40.9674" y1="15.5977" x2="16.0934" y2="42.7863" gradientUnits="userSpaceOnUse">
<stop offset="0.17" stop-color="#FFF44F" stop-opacity="0.8"/>
<stop offset="0.6" stop-color="#FFF44F" stop-opacity="0"/>
</linearGradient>
</defs>
</svg>
