<svg width="512" height="512" viewBox="0 0 512 512" fill="none" xmlns="http://www.w3.org/2000/svg">
<circle cx="256" cy="233" r="233" fill="black"/>
<g clip-path="url(#clip0_117_441)">
<path fill-rule="evenodd" clip-rule="evenodd" d="M256.506 39.6013C149.595 39.6013 63.1674 125.759 63.1674 232.347C63.1674 317.549 118.544 389.671 195.367 415.197C204.972 417.116 208.49 411.05 208.49 405.947C208.49 401.479 208.173 386.162 208.173 370.203C154.391 381.694 143.192 347.227 143.192 347.227C134.548 324.889 121.742 319.147 121.742 319.147C104.139 307.34 123.024 307.34 123.024 307.34C142.55 308.616 152.796 327.125 152.796 327.125C170.079 356.481 197.927 348.186 209.131 343.079C210.73 330.634 215.855 322.018 221.296 317.232C178.401 312.764 133.27 296.171 133.27 222.134C133.27 201.072 140.948 183.841 153.113 170.439C151.194 165.654 144.47 145.865 155.036 119.379C155.036 119.379 171.361 114.273 208.169 139.164C223.928 134.945 240.18 132.799 256.506 132.781C272.83 132.781 289.472 135.017 304.839 139.164C341.651 114.273 357.976 119.379 357.976 119.379C368.542 145.865 361.814 165.654 359.895 170.439C372.381 183.841 379.742 201.072 379.742 222.134C379.742 296.171 334.611 312.443 291.395 317.232C298.439 323.295 304.518 334.781 304.518 352.972C304.518 378.819 304.201 399.564 304.201 405.943C304.201 411.05 307.724 417.116 317.324 415.201C394.147 389.667 449.524 317.549 449.524 232.347C449.84 125.759 363.097 39.6013 256.506 39.6013Z" fill="white"/>
</g>
<mask id="mask0_117_441" style="mask-type:alpha" maskUnits="userSpaceOnUse" x="12" y="262" width="500" height="250">
<rect x="12" y="262" width="500" height="250" rx="125" fill="#D9D9D9"/>
</mask>
<g mask="url(#mask0_117_441)">
<rect x="12" y="262" width="250" height="250" fill="#64B65D"/>
<rect x="262" y="262" width="250" height="250" fill="#C8443B"/>
</g>
<rect x="121" y="323" width="32" height="128" fill="#195114"/>
<rect x="201" y="371" width="32" height="128" transform="rotate(90 201 371)" fill="#195114"/>
<rect x="451" y="371" width="32" height="128" transform="rotate(90 451 371)" fill="#6D1A14"/>
<defs>
<clipPath id="clip0_117_441">
<rect width="387.833" height="375.96" fill="white" transform="translate(63.1674 39.6013)"/>
</clipPath>
</defs>
</svg>
